<?xml version="1.0" encoding="utf-8"?>
<!-- Generator: Adobe Illustrator 21.0.2, SVG Export Plug-In . SVG Version: 6.00 Build 0)  -->
<svg version="1.1" id="Layer_1" xmlns="http://www.w3.org/2000/svg" xmlns:xlink="http://www.w3.org/1999/xlink" x="0px" y="0px"
	 viewBox="0 0 97 94" style="enable-background:new 0 0 97 94;" xml:space="preserve">
<style type="text/css">
	.st0{fill:#FFFFFF;}
</style>
<g>
	<path class="st0" d="M48.5,67c-7,0-14.1,0-21.1,0c-0.9,0-1.6-0.1-2-1c-0.4-0.8-0.2-1.5,0.4-2.2c1.6-2.2,3.1-4.4,4.7-6.5
		c0.4-0.5,1.1-0.9,1.7-0.9c10.9-0.1,21.9-0.1,32.8,0c0.6,0,1.3,0.4,1.7,0.9c1.6,2.1,3.1,4.3,4.7,6.5c0.5,0.7,0.7,1.5,0.3,2.3
		C71.2,67,70.5,67,69.7,67C62.6,67,55.5,67,48.5,67z"/>
	<path class="st0" d="M48.6,27c4.5,0,9.1,0,13.6,0c3,0,4.7,1.7,4.7,4.7c0,5.7,0,11.4,0,17.1c0,3-1.7,4.8-4.8,4.8
		c-9.1,0-18.2,0-27.3,0c-3,0-4.7-1.6-4.7-4.5c-0.1-5.8-0.1-11.7,0-17.5c0-2.9,1.7-4.5,4.6-4.5C39.4,27,44,27,48.6,27z M48.4,30.7
		c-3.7,0-7.5,0-11.2,0c-2.3,0-3.4,1-3.4,3.3c0,4.2,0,8.4,0,12.6c0,2.2,1.1,3.3,3.3,3.3c7.6,0,15.1,0,22.7,0c2.2,0,3.3-1.1,3.3-3.2
		c0-4.3,0-8.6,0-12.8c0-2.2-1.1-3.2-3.3-3.2C55.9,30.7,52.1,30.7,48.4,30.7z"/>
</g>
</svg>
