<?xml version="1.0" encoding="utf-8"?>
<!-- Generator: Adobe Illustrator 21.0.2, SVG Export Plug-In . SVG Version: 6.00 Build 0)  -->
<svg version="1.1" id="Layer_1" xmlns="http://www.w3.org/2000/svg" xmlns:xlink="http://www.w3.org/1999/xlink" x="0px" y="0px"
	 viewBox="0 0 97 94" style="enable-background:new 0 0 97 94;" xml:space="preserve">
<style type="text/css">
	.st0{fill:#FFFFFF;}
</style>
<g>
	<path class="st0" d="M33.7,67c0-4,0-8,0-12c-1.4,0-2.6,0-3.9,0c-1.5,0-2.2-0.7-2.3-2.2c0-2.4,0-4.9,0-7.3c0-1.6,0.7-2.3,2.3-2.3
		c1.2,0,2.5,0,3.7,0c0,0,0.1,0,0.2-0.1c0-5.2,0-10.5,0-15.8c0.4,0,0.8-0.1,1.1-0.1c6.3,0,12.6,0,19,0c0.7,0,1.1,0.2,1.6,0.7
		c2.3,2.4,4.6,4.9,7,7.2c0.6,0.6,0.8,1.2,0.8,2.1c0,2,0,3.9,0,6c1.3,0,2.5,0,3.7,0c1.9,0,2.6,0.7,2.6,2.7c0,2.3,0,4.6,0,7
		c0,1.5-0.8,2.2-2.2,2.2c-1.3,0-2.5,0-3.9,0c0,4,0,8,0,12C53.4,67,43.6,67,33.7,67z M37.1,30.2c0,4.3,0,8.6,0,12.8
		c7.7,0,15.3,0,22.9,0c0-1.7,0-3.4,0-5.1c-3,0-5.9,0-9,0c0-2.6,0-5.2,0-7.7C46.3,30.2,41.7,30.2,37.1,30.2z M36.9,55c0,3,0,6,0,8.9
		c7.8,0,15.5,0,23.2,0c0-3,0-5.9,0-8.9C52.4,55,44.7,55,36.9,55z M65.3,45.9c-1.7,0-1.7,0-1.7,1.5c0,1.9,0,1.9,1.6,1.9
		c1.8,0,1.8,0,1.8-1.6C67,45.9,67,45.9,65.3,45.9z M54.3,31.5c0,1,0,2.1,0,3.2c1.1,0,2.2,0,3.4,0C56.5,33.6,55.4,32.5,54.3,31.5z"/>
</g>
</svg>
