<?xml version="1.0" encoding="utf-8"?>
<!-- Generator: Adobe Illustrator 21.0.2, SVG Export Plug-In . SVG Version: 6.00 Build 0)  -->
<svg version="1.1" id="Layer_1" xmlns="http://www.w3.org/2000/svg" xmlns:xlink="http://www.w3.org/1999/xlink" x="0px" y="0px"
	 viewBox="0 0 1237 474.7" style="enable-background:new 0 0 1237 474.7;" xml:space="preserve">
<style type="text/css">
	.st0{fill:none;}
	.st1{fill:#F6906C;}
	.st2{font-family:'NeueHaasUnicaPro-Bold';}
	.st3{font-size:90px;}
	.st4{fill:#004B45;}
	.st5{fill:#F68F6B;}
	.st6{fill:#F6C090;}
	.st7{fill:#E26846;}
</style>
<g>
	<rect x="496" y="193.7" class="st0" width="741" height="341"/>
	<text transform="matrix(1 0 0 1 495.9998 257.7989)"><tspan x="0" y="0" class="st1 st2 st3">Committed to </tspan><tspan x="0" y="108" class="st1 st2 st3">putting patients </tspan><tspan x="0" y="216" class="st1 st2 st3">first.</tspan></text>
</g>
<g>
	<g>
		<path class="st4" d="M90.6,265.1v-9.1c0-2.5,0-4.8,0.1-6.8h0c-0.6,2-1.3,4.2-2.2,6.8l-3.1,9.1h-3.5l-3.1-9.1
			c-0.9-2.5-1.6-4.8-2.2-6.8h-0.1c0.1,2,0.1,4.3,0.1,6.8v9.1h-2.9v-18h4.9l2.9,8.6c0.8,2.3,1.5,4.6,2.1,6.8h0.1
			c0.7-2.3,1.4-4.6,2.1-6.8l2.9-8.6h4.9v18H90.6z"/>
		<path class="st4" d="M101,249.8v4.9h8.5v2.6H101v5.3h9.3v2.6H98v-18h12.1v2.6H101z"/>
		<path class="st4" d="M126.6,249.5c1.6,1.6,2.5,3.8,2.5,6.7c0,2.9-0.8,5.1-2.5,6.7c-1.6,1.6-4,2.3-7,2.3h-5.8v-18h5.8
			C122.6,247.1,125,247.9,126.6,249.5z M116.8,262.5h2.7c2.1,0,3.7-0.5,4.7-1.6c1.1-1.1,1.6-2.7,1.6-4.8c0-2.1-0.5-3.7-1.6-4.8
			s-2.7-1.6-4.7-1.6h-2.7V262.5z"/>
		<path class="st4" d="M132.3,265.1v-18h3v18H132.3z"/>
		<path class="st4" d="M150.4,247.6c1.1,0.6,1.9,1.3,2.5,2.3c0.6,1,0.9,2.1,1,3.4h-3.1c-0.1-1.2-0.6-2.1-1.3-2.8
			c-0.8-0.7-1.7-1-2.9-1c-1.5,0-2.7,0.6-3.6,1.8c-0.9,1.2-1.3,2.8-1.3,4.9c0,2.1,0.4,3.7,1.3,4.9c0.9,1.2,2.1,1.8,3.6,1.8
			c1.2,0,2.2-0.3,2.9-1c0.8-0.7,1.2-1.7,1.4-2.9h3.1c-0.2,2.1-0.9,3.7-2.3,4.9c-1.3,1.2-3.1,1.8-5.2,1.8c-1.6,0-3.1-0.4-4.3-1.1
			s-2.1-1.8-2.8-3.3c-0.6-1.4-1-3.1-1-5c0-1.9,0.3-3.6,1-5c0.6-1.4,1.6-2.5,2.8-3.3c1.2-0.8,2.6-1.1,4.3-1.1
			C148.1,246.7,149.3,247,150.4,247.6z"/>
		<path class="st4" d="M159.5,260.3l-1.7,4.9h-3.2l6.6-18h4.1l6.6,18h-3.2l-1.7-4.9H159.5z M165.6,256.2c-1-3-1.8-5.4-2.3-7.2h-0.1
			c-0.9,2.9-1.7,5.3-2.3,7.2l-0.5,1.4h5.6L165.6,256.2z"/>
		<path class="st4" d="M185.5,262.5v2.6h-11.9v-18h3v15.4H185.5z"/>
		<path class="st4" d="M204.5,247.6c1.1,0.6,1.9,1.3,2.5,2.3c0.6,1,0.9,2.1,1,3.4H205c-0.1-1.2-0.6-2.1-1.3-2.8
			c-0.8-0.7-1.7-1-2.9-1c-1.5,0-2.7,0.6-3.6,1.8c-0.9,1.2-1.3,2.8-1.3,4.9c0,2.1,0.4,3.7,1.3,4.9c0.9,1.2,2.1,1.8,3.6,1.8
			c1.2,0,2.2-0.3,2.9-1c0.8-0.7,1.2-1.7,1.4-2.9h3.1c-0.2,2.1-0.9,3.7-2.3,4.9c-1.3,1.2-3.1,1.8-5.2,1.8c-1.6,0-3.1-0.4-4.3-1.1
			s-2.1-1.8-2.8-3.3c-0.6-1.4-1-3.1-1-5c0-1.9,0.3-3.6,1-5c0.6-1.4,1.6-2.5,2.8-3.3c1.2-0.8,2.6-1.1,4.3-1.1
			C202.1,246.7,203.4,247,204.5,247.6z"/>
		<path class="st4" d="M213.5,260.3l-1.7,4.9h-3.2l6.6-18h4.1l6.6,18h-3.2l-1.7-4.9H213.5z M219.6,256.2c-1-3-1.8-5.4-2.3-7.2h-0.1
			c-0.9,2.9-1.7,5.3-2.3,7.2l-0.5,1.4h5.6L219.6,256.2z"/>
		<path class="st4" d="M238.2,265.1l-3.9-7.5c-1.4-2.7-2.6-5.2-3.8-7.7h-0.1c0.1,2.7,0.2,5.5,0.2,8.2v7.1h-2.9v-18h4.4l3.9,7.5
			c1.4,2.7,2.6,5.2,3.8,7.7h0.1c-0.1-3-0.1-5.8-0.1-8.2v-7.1h2.9v18H238.2z"/>
		<path class="st4" d="M257.6,265.1l-3.9-7.5c-1.4-2.7-2.6-5.2-3.8-7.7h-0.1c0.1,2.7,0.2,5.5,0.2,8.2v7.1h-2.9v-18h4.4l3.9,7.5
			c1.4,2.7,2.6,5.2,3.8,7.7h0.1c-0.1-3-0.1-5.8-0.1-8.2v-7.1h2.9v18H257.6z"/>
		<path class="st4" d="M268.7,260.3l-1.7,4.9h-3.2l6.6-18h4.1l6.6,18h-3.2l-1.7-4.9H268.7z M274.8,256.2c-1-3-1.8-5.4-2.3-7.2h-0.1
			c-0.9,2.9-1.7,5.3-2.3,7.2l-0.5,1.4h5.6L274.8,256.2z"/>
		<path class="st4" d="M293.8,248.4c1.1,0.8,1.6,1.9,1.6,3.4c0,2-1,3.4-3.1,4.2v0.1c2.3,0.5,3.5,1.9,3.5,4.2c0,1.5-0.5,2.7-1.6,3.6
			c-1.1,0.9-2.6,1.3-4.6,1.3h-6.7v-18h6.2C291.2,247.1,292.7,247.5,293.8,248.4z M285.9,254.8h3c1.2,0,2.1-0.2,2.7-0.6
			c0.6-0.4,0.8-1.1,0.8-1.9c0-0.9-0.3-1.5-0.8-1.9c-0.5-0.4-1.4-0.6-2.6-0.6h-3.1V254.8z M285.9,262.6h3.2c1.2,0,2.1-0.2,2.7-0.7
			c0.6-0.4,0.9-1.1,0.9-2c0-0.9-0.3-1.6-0.9-2.1c-0.6-0.5-1.6-0.7-2.9-0.7h-3V262.6z"/>
		<path class="st4" d="M299,265.1v-18h3v18H299z"/>
		<path class="st4" d="M316.7,248.2c1.1,1,1.7,2.5,1.7,4.4h-3.1c0-1.1-0.3-2-0.9-2.6c-0.6-0.6-1.5-0.9-2.7-0.9c-1,0-1.8,0.2-2.3,0.6
			c-0.6,0.4-0.8,1-0.8,1.8c0,0.5,0.1,1,0.4,1.3c0.3,0.3,0.7,0.6,1.3,0.8c0.6,0.2,1.4,0.5,2.4,0.7c1.4,0.3,2.5,0.7,3.4,1
			c0.9,0.4,1.5,0.9,2.1,1.6c0.5,0.7,0.8,1.7,0.8,2.9c0,1.1-0.3,2.1-0.8,2.9c-0.6,0.8-1.3,1.5-2.4,1.9c-1,0.5-2.2,0.7-3.5,0.7
			c-2.2,0-3.9-0.5-5.2-1.6c-1.2-1.1-1.8-2.7-1.8-4.7h3.1c0,1.3,0.3,2.2,1,2.9c0.7,0.6,1.6,1,2.9,1c1.1,0,2-0.2,2.6-0.7
			c0.6-0.5,1-1.2,1-2c0-0.6-0.1-1.1-0.4-1.4c-0.3-0.3-0.7-0.6-1.2-0.8c-0.5-0.2-1.3-0.4-2.4-0.7c-1.4-0.4-2.5-0.7-3.4-1.1
			c-0.8-0.4-1.5-0.9-2.1-1.6c-0.5-0.7-0.8-1.6-0.8-2.8c0-1,0.3-1.9,0.8-2.7c0.5-0.8,1.3-1.4,2.2-1.8c1-0.4,2.1-0.6,3.3-0.6
			C313.9,246.7,315.6,247.2,316.7,248.2z"/>
	</g>
	<g>
		<g>
			<path class="st5" d="M248.7,50.1h4.1v4.1c0,24.4-19.8,44.1-44.1,44.1h-4.1v-4.1C204.6,69.9,224.3,50.1,248.7,50.1z M213,89.9
				c16.4-2,29.5-15,31.4-31.4l0,0C228,60.5,214.9,73.5,213,89.9L213,89.9z"/>
		</g>
		<g>
			<path class="st6" d="M269.9,116.8l2.9,2.9l-2.9,2.9c-17.2,17.2-45.2,17.2-62.4,0l-2.9-2.9l2.9-2.9
				C224.7,99.6,252.6,99.6,269.9,116.8z M216.4,119.7c13,10.2,31.5,10.2,44.4,0v0C247.9,109.5,229.4,109.5,216.4,119.7L216.4,119.7z
				"/>
		</g>
		<g>
			<path class="st7" d="M199.2,65.3l-2.9,2.9l-2.9-2.9c-17.2-17.2-17.2-45.2,0-62.4l2.9-2.9l2.9,2.9
				C216.4,20.1,216.4,48.1,199.2,65.3z M196.3,11.9c-10.2,13-10.2,31.5,0,44.4h0C206.5,43.3,206.5,24.9,196.3,11.9L196.3,11.9z"/>
		</g>
		<g>
			<path class="st5" d="M188,94.3v4.1H184c-24.4,0-44.1-19.8-44.1-44.1v-4.1h4.1C168.3,50.1,188,69.9,188,94.3z M148.2,58.5
				c2,16.4,15,29.5,31.4,31.4l0,0C177.7,73.5,164.6,60.5,148.2,58.5L148.2,58.5z"/>
		</g>
		<g>
			<path class="st6" d="M185.2,116.8l2.9,2.9l-2.9,2.9c-17.2,17.2-45.2,17.2-62.4,0l-2.9-2.9l2.9-2.9
				C140,99.6,167.9,99.6,185.2,116.8z M131.7,119.7c13,10.2,31.5,10.2,44.4,0v0C163.2,109.5,144.7,109.5,131.7,119.7L131.7,119.7z"
				/>
		</g>
	</g>
	<g>
		<path class="st4" d="M150.3,281.7c1.6,1.6,2.5,3.8,2.5,6.7c0,2.9-0.8,5.1-2.5,6.7c-1.6,1.6-4,2.3-7,2.3h-5.8v-18h5.8
			C146.3,279.3,148.7,280.1,150.3,281.7z M140.6,294.7h2.7c2.1,0,3.7-0.5,4.7-1.6s1.6-2.7,1.6-4.8c0-2.1-0.5-3.7-1.6-4.8
			c-1.1-1.1-2.7-1.6-4.7-1.6h-2.7V294.7z"/>
		<path class="st4" d="M168.1,280.1c1.3,0.8,2.2,1.8,2.9,3.3c0.7,1.4,1,3.1,1,5c0,1.9-0.3,3.6-1,5c-0.7,1.4-1.6,2.5-2.9,3.3
			s-2.7,1.1-4.4,1.1c-1.7,0-3.2-0.4-4.4-1.1s-2.2-1.8-2.9-3.3c-0.7-1.4-1-3.1-1-5c0-1.9,0.3-3.6,1-5c0.7-1.4,1.6-2.5,2.9-3.3
			s2.7-1.1,4.4-1.1C165.4,278.9,166.8,279.3,168.1,280.1z M159.8,283.4c-0.9,1.2-1.4,2.8-1.4,4.9c0,2.1,0.5,3.7,1.4,4.9
			s2.2,1.8,3.8,1.8c1.6,0,2.9-0.6,3.8-1.8s1.4-2.8,1.4-4.9c0-2.1-0.5-3.7-1.4-4.9c-0.9-1.2-2.2-1.8-3.8-1.8
			C162.1,281.6,160.8,282.2,159.8,283.4z"/>
		<path class="st4" d="M186.4,279.8c1.1,0.6,1.9,1.3,2.5,2.3c0.6,1,0.9,2.1,1,3.4h-3.1c-0.1-1.2-0.6-2.1-1.3-2.8
			c-0.8-0.7-1.7-1-2.9-1c-1.5,0-2.7,0.6-3.6,1.8c-0.9,1.2-1.3,2.8-1.3,4.9c0,2.1,0.4,3.7,1.3,4.9c0.9,1.2,2.1,1.8,3.6,1.8
			c1.2,0,2.2-0.3,2.9-1c0.8-0.7,1.2-1.7,1.4-2.9h3.1c-0.2,2.1-0.9,3.7-2.3,4.9c-1.3,1.2-3.1,1.8-5.2,1.8c-1.6,0-3.1-0.4-4.3-1.1
			c-1.2-0.8-2.1-1.8-2.8-3.3c-0.6-1.4-1-3.1-1-5c0-1.9,0.3-3.6,1-5c0.6-1.4,1.6-2.5,2.8-3.3c1.2-0.8,2.6-1.1,4.3-1.1
			C184.1,278.9,185.3,279.2,186.4,279.8z"/>
		<path class="st4" d="M199.8,281.9v15.4h-3v-15.4h-5.9v-2.6h14.9v2.6H199.8z"/>
		<path class="st4" d="M219,280.1c1.3,0.8,2.2,1.8,2.9,3.3c0.7,1.4,1,3.1,1,5c0,1.9-0.3,3.6-1,5c-0.7,1.4-1.6,2.5-2.9,3.3
			s-2.7,1.1-4.4,1.1c-1.7,0-3.2-0.4-4.4-1.1s-2.2-1.8-2.9-3.3c-0.7-1.4-1-3.1-1-5c0-1.9,0.3-3.6,1-5c0.7-1.4,1.6-2.5,2.9-3.3
			s2.7-1.1,4.4-1.1C216.3,278.9,217.7,279.3,219,280.1z M210.7,283.4c-0.9,1.2-1.4,2.8-1.4,4.9c0,2.1,0.5,3.7,1.4,4.9
			s2.2,1.8,3.8,1.8c1.6,0,2.9-0.6,3.8-1.8s1.4-2.8,1.4-4.9c0-2.1-0.5-3.7-1.4-4.9c-0.9-1.2-2.2-1.8-3.8-1.8
			C212.9,281.6,211.7,282.2,210.7,283.4z"/>
		<path class="st4" d="M237.2,280.6c1.1,0.9,1.6,2.1,1.6,3.7c0,1.1-0.3,2.1-0.9,2.9c-0.6,0.8-1.4,1.3-2.4,1.6v0.1
			c0.6,0.2,1.1,0.6,1.5,1c0.4,0.5,0.8,1.3,1.2,2.4l1.8,5.1h-3.3l-1.5-4.5c-0.4-1-0.8-1.7-1.3-2.1c-0.5-0.4-1.2-0.6-2.1-0.6h-2.6v7.2
			h-3v-18h6.2C234.5,279.3,236.1,279.7,237.2,280.6z M229.2,287.6h3c1.2,0,2.1-0.3,2.7-0.8c0.6-0.5,0.9-1.2,0.9-2.2
			c0-1.9-1.2-2.9-3.7-2.9h-2.8V287.6z"/>
		<path class="st4" d="M252.9,280.4c1.1,1,1.7,2.5,1.7,4.4h-3.1c0-1.1-0.3-2-0.9-2.6c-0.6-0.6-1.5-0.9-2.7-0.9c-1,0-1.8,0.2-2.3,0.6
			c-0.6,0.4-0.8,1-0.8,1.8c0,0.5,0.1,1,0.4,1.3c0.3,0.3,0.7,0.6,1.3,0.8c0.6,0.2,1.4,0.5,2.4,0.7c1.4,0.3,2.5,0.7,3.4,1
			c0.9,0.4,1.5,0.9,2.1,1.6c0.5,0.7,0.8,1.7,0.8,2.9c0,1.1-0.3,2.1-0.8,2.9c-0.6,0.8-1.3,1.5-2.4,1.9c-1,0.5-2.2,0.7-3.5,0.7
			c-2.2,0-3.9-0.5-5.2-1.6c-1.2-1.1-1.8-2.7-1.8-4.7h3.1c0,1.3,0.3,2.2,1,2.9c0.7,0.6,1.6,1,2.9,1c1.1,0,2-0.2,2.6-0.7
			c0.6-0.5,1-1.2,1-2c0-0.6-0.1-1.1-0.4-1.4c-0.3-0.3-0.7-0.6-1.2-0.8c-0.5-0.2-1.3-0.4-2.4-0.7c-1.4-0.4-2.5-0.7-3.4-1.1
			c-0.8-0.4-1.5-0.9-2.1-1.6c-0.5-0.7-0.8-1.6-0.8-2.8c0-1,0.3-1.9,0.8-2.7c0.5-0.8,1.3-1.4,2.2-1.8c1-0.4,2.1-0.6,3.3-0.6
			C250.1,278.9,251.7,279.4,252.9,280.4z"/>
	</g>
	<path class="st4" d="M413.4,187.7l-2.2,4.5c-0.2,0.3-0.4,0.5-0.7,0.5c-0.3,0-0.5-0.2-0.7-0.5l-2.3-4.5v6.7c0,0.3,0,0.4-0.1,0.5
		c-0.1,0.1-0.2,0.2-0.4,0.2c-0.2,0-0.3-0.1-0.4-0.2c-0.1-0.1-0.1-0.2-0.1-0.5v-8c0-0.5,0-0.6,0.2-0.8c0.1-0.1,0.2-0.2,0.4-0.2
		c0.2,0,0.3,0,0.4,0.2c0.1,0.1,0.2,0.3,0.4,0.6l2.6,5.2l2.6-5.2c0.2-0.4,0.3-0.5,0.4-0.6c0.1-0.1,0.2-0.2,0.4-0.2
		c0.2,0,0.3,0.1,0.4,0.2c0.1,0.1,0.2,0.3,0.2,0.8v8c0,0.3,0,0.4-0.1,0.5c-0.1,0.1-0.2,0.2-0.4,0.2c-0.2,0-0.3-0.1-0.4-0.2
		c-0.1-0.1-0.1-0.2-0.1-0.5V187.7 M401.1,186.4h-2.2c-0.2,0-0.4,0-0.5-0.1c-0.1-0.1-0.2-0.2-0.2-0.3c0-0.1,0-0.3,0.2-0.3
		c0.1-0.1,0.2-0.1,0.5-0.1h5.3c0.2,0,0.4,0,0.5,0.1c0.1,0.1,0.2,0.2,0.2,0.3c0,0.1,0,0.3-0.2,0.3c-0.1,0.1-0.2,0.1-0.5,0.1h-2.2v8
		c0,0.3,0,0.4-0.1,0.5c-0.1,0.1-0.2,0.2-0.4,0.2c-0.2,0-0.3-0.1-0.4-0.2c-0.1-0.1-0.1-0.2-0.1-0.5V186.4z"/>
	<path class="st4" d="M65,165.3c-1.6-1-3.6-0.8-5,0.3c-0.7,0.6-1.2,1.6-1.5,2.9l-9.8,39.6L38.2,169c-0.3-1.3-0.8-2.3-1.5-3
		c-0.6-0.6-1.6-1.3-3.3-1.3c-1.3,0-2.4,0.4-3.2,1.2c-0.7,0.7-1.2,1.6-1.5,2.9l-10.5,39.3l-9.8-39.5c-0.3-1.4-0.8-2.3-1.6-3
		c-1.3-1.1-3.3-1.3-4.9-0.3c-0.8,0.5-1.3,1.2-1.6,2c-0.2,0.5-0.2,1-0.2,1.5c0,0.6,0.1,1.2,0.3,1.9l12.8,51.6
		c0.3,1.2,0.8,2.2,1.5,2.9c1.7,1.8,4.8,1.8,6.6,0c0.7-0.7,1.2-1.6,1.5-2.9l10.8-39.8l10.8,39.8c0.3,1.2,0.8,2.2,1.5,2.9
		c0.9,0.9,2,1.4,3.3,1.4c1.3,0,2.4-0.5,3.3-1.4c0.7-0.7,1.2-1.7,1.4-2.9l12.9-51.6c0.2-0.7,0.3-1.3,0.3-1.9c0-0.6-0.1-1.1-0.2-1.5
		C66.4,166.5,65.8,165.8,65,165.3z"/>
	<path class="st4" d="M88.8,182.9c-3.5,0-6.6,0.8-9.2,2.5v-15.8c0-1.4-0.3-2.4-0.8-3.2c-0.7-1.1-2-1.8-3.5-1.8
		c-1.5,0-2.7,0.6-3.4,1.7c-0.5,0.8-0.8,1.8-0.8,3.2v52.1c0,1.4,0.3,2.4,0.8,3.2c0.7,1.1,2,1.8,3.5,1.8c1.5,0,2.7-0.6,3.4-1.7
		c0.5-0.8,0.8-1.8,0.8-3.2v-21.4c0-3.1,0.7-5.4,2.3-7c1.5-1.6,3.6-2.3,6.5-2.3c2.9,0,4.9,0.7,6.3,2.3c1.4,1.6,2.2,4,2.2,7.1v21.4
		c0,1.4,0.3,2.4,0.8,3.2c0.7,1.1,2,1.8,3.4,1.8c1.5,0,2.7-0.6,3.4-1.7c0.6-0.8,0.8-1.9,0.8-3.2v-22.2c0-5.2-1.6-9.3-4.7-12.3
		C97.7,184.4,93.7,182.9,88.8,182.9z"/>
	<path class="st4" d="M115.8,226.6c1.5,0,2.7-0.6,3.4-1.7c0.5-0.8,0.8-1.8,0.8-3.2V188c0-1.3-0.3-2.4-0.8-3.2
		c-0.7-1.1-2-1.8-3.5-1.8c-1.5,0-2.7,0.6-3.4,1.8c-0.5,0.8-0.8,1.8-0.8,3.2v33.7c0,1.4,0.3,2.4,0.8,3.2
		C113.1,226,114.4,226.6,115.8,226.6z"/>
	<path class="st4" d="M112.2,165.2c-1,1-1.5,2.2-1.5,3.6c0,1.4,0.5,2.6,1.5,3.6c1,1,2.2,1.5,3.7,1.5c1.4,0,2.7-0.5,3.7-1.5
		c1-1,1.5-2.2,1.5-3.6c0-1.4-0.5-2.6-1.5-3.6C117.5,163.2,114.2,163.2,112.2,165.2z"/>
	<path class="st4" d="M143.4,191.1c1.3,0,2.2-0.2,3-0.8c1-0.7,1.5-1.8,1.5-3.1c0-1.2-0.5-2.3-1.6-3.1c-0.7-0.5-1.7-0.7-2.9-0.7h-4.5
		v-7.7c0-1.3-0.3-2.3-0.8-3.2c-0.8-1.1-2-1.8-3.4-1.8c-1.5,0-2.7,0.6-3.4,1.8c-0.5,0.8-0.8,1.8-0.8,3.2v7.7h-1.1
		c-1.3,0-2.2,0.2-3,0.8c-1,0.7-1.5,1.8-1.5,3.1c0,1.2,0.5,2.3,1.6,3.1c0.7,0.5,1.7,0.7,2.9,0.7h1.1v23c0,3.5,1,6.5,3,8.7
		c2,2.3,4.9,3.5,8.5,3.5h1.2c1.5,0,2.5-0.3,3.3-0.8c1-0.8,1.5-1.9,1.5-3.2c0-1.3-0.5-2.4-1.6-3.2c-0.7-0.5-1.8-0.8-3.1-0.8h-0.7
		c-1.9,0-2.5-0.7-2.7-0.9c-0.6-0.7-0.9-1.8-0.9-3.3v-23H143.4z M126.9,187.3L126.9,187.3L126.9,187.3L126.9,187.3z"/>
	<path class="st4" d="M166.2,182.9c-5.5,0-10,2-13.1,5.9c-3.1,3.8-4.6,9.2-4.6,16c0,6.9,1.6,12.3,4.7,16.1c3.2,3.9,7.9,5.8,13.9,5.8
		c4.1,0,7.6-0.8,10.3-2.3c2.2-1.2,5.2-3.2,5.2-6c0-1-0.4-2-1.2-2.8c-1.3-1.4-3.4-1.6-4.9-0.6c-0.4,0.2-0.9,0.6-1.6,1.3
		c-1.9,1.7-4.4,2.5-7.5,2.5c-3.4,0-5.9-1-7.7-3.1c-1.5-1.8-2.4-4.4-2.7-7.8h22.1c1.5,0,2.7-0.4,3.5-1.2c0.8-0.8,1.2-1.9,1.2-3.5
		c0-6.1-1.6-11-4.7-14.6C176,184.8,171.6,182.9,166.2,182.9z M158.2,196c0.6-1.6,1.6-2.8,3.1-3.7c1.4-0.9,3.1-1.4,4.9-1.4
		c1.9,0,3.5,0.5,4.9,1.4c1.4,0.9,2.4,2.1,3.1,3.7c0.5,1.1,0.8,2.5,1,4.1h-18C157.4,198.6,157.7,197.2,158.2,196z"/>
	<path class="st4" d="M209.3,176.4c2.5-2.5,5.6-3.7,9.3-3.7c3.1,0,5.6,0.8,7.8,2.4c2.2,1.7,3.7,3.9,4.6,6.8c0.4,1.3,0.9,2.3,1.6,3
		c1.5,1.5,4.3,1.5,5.9,0c0.5-0.5,1.2-1.5,1.2-3.1c0-1.2-0.4-2.6-1.1-4.4c-0.7-1.7-1.6-3.3-2.6-4.6c-4.2-5.5-10.1-8.3-17.3-8.3
		c-6.2,0-11.4,2-15.4,6.1c-1.2,1.2-2.2,2.4-2.9,3.6c-0.8,1.2-1.4,2.4-1.8,3.7c-0.5,1.3-0.8,2.9-1,4.9c-0.2,1.9-0.3,3.7-0.4,5.5
		c-0.1,1.8-0.1,4.3-0.1,7.4c0,3.1,0,5.6,0.1,7.4c0.1,1.8,0.2,3.6,0.4,5.5c0.2,2,0.6,3.6,1,4.9c0.5,1.2,1.1,2.5,1.8,3.7
		c0.8,1.2,1.7,2.4,2.9,3.6c4,4,9.2,6.1,15.4,6.1c7.3,0,13.1-2.8,17.4-8.3c1.1-1.4,1.9-2.9,2.6-4.6c0.7-1.8,1.1-3.2,1.1-4.4
		c0-1.6-0.6-2.6-1.2-3.1c-1.5-1.5-4.3-1.5-5.9,0c-0.7,0.7-1.2,1.6-1.6,2.9c-0.9,3-2.4,5.2-4.6,6.9c-2.2,1.6-4.7,2.5-7.8,2.5
		c-3.7,0-6.8-1.2-9.3-3.8c-1.6-1.6-2.6-3.5-3-5.8c-0.5-2.6-0.7-7.1-0.7-13.4c0-6.3,0.2-10.8,0.7-13.4
		C206.7,180,207.7,178.1,209.3,176.4z"/>
	<path class="st4" d="M261.9,182.9c-5.5,0-10,2-13.1,5.9c-3.1,3.8-4.6,9.2-4.6,16c0,6.9,1.6,12.3,4.7,16.1c3.2,3.9,7.9,5.8,13.9,5.8
		c4.1,0,7.6-0.8,10.3-2.3c2.2-1.2,5.2-3.2,5.2-6c0-1-0.4-2-1.2-2.8c-1.3-1.4-3.4-1.6-4.9-0.6c-0.4,0.2-0.9,0.6-1.6,1.3
		c-1.9,1.7-4.4,2.5-7.5,2.5c-3.4,0-5.9-1-7.7-3.1c-1.5-1.8-2.4-4.4-2.7-7.8h22.1c1.5,0,2.7-0.4,3.5-1.2c0.8-0.8,1.2-1.9,1.2-3.5
		c0-6.1-1.6-11-4.7-14.6C271.6,184.8,267.3,182.9,261.9,182.9z M253.8,196c0.6-1.6,1.6-2.8,3.1-3.7c1.4-0.9,3.1-1.4,4.9-1.4
		c1.9,0,3.5,0.5,4.9,1.4c1.4,0.9,2.4,2.1,3.1,3.7c0.5,1.1,0.8,2.5,1,4.1h-18C253,198.6,253.4,197.2,253.8,196z"/>
	<path class="st4" d="M314.4,164.7c-1.5,0-2.7,0.6-3.4,1.7c-0.5,0.8-0.8,1.8-0.8,3.2v15.8c-0.7-0.5-1.4-0.8-2.1-1.1
		c-2.1-0.9-4.5-1.3-7.2-1.3c-2.2,0-4.3,0.4-6.2,1.1c-2,0.7-3.6,1.7-4.8,2.9c-3.8,3.8-5.7,9.8-5.7,17.9c0,8.1,1.9,14.2,5.7,17.9
		c1.2,1.2,2.9,2.2,4.8,2.9c1.9,0.7,4,1,6.2,1c2.7,0,5.1-0.4,7.2-1.3c0.8-0.4,1.7-0.8,2.5-1.4c0.1,0.3,0.3,0.6,0.4,0.8
		c0.7,1.1,2,1.8,3.5,1.8c1.5,0,2.7-0.6,3.4-1.7c0.5-0.8,0.8-1.8,0.8-3.2v-52.1c0-1.4-0.3-2.4-0.8-3.2
		C317.1,165.3,315.9,164.7,314.4,164.7z M292.9,209.4c-0.1-1.3-0.2-2.8-0.2-4.6s0.1-3.3,0.2-4.6v0c0.1-1.2,0.4-2.6,0.8-3.9
		c0.4-1.2,0.9-2.2,1.5-2.9c0.6-0.7,1.4-1.3,2.4-1.8c1-0.5,2.3-0.7,3.8-0.7c1.5,0,2.8,0.2,3.8,0.7c1,0.5,1.8,1.1,2.4,1.8
		c0.6,0.7,1.1,1.7,1.5,2.9c0.4,1.3,0.7,2.6,0.8,3.9c0.1,1.3,0.2,2.8,0.2,4.6c0,1.7-0.1,3.3-0.2,4.6c-0.1,1.3-0.4,2.6-0.8,3.9
		c-0.4,1.2-0.9,2.2-1.5,3c-0.6,0.7-1.4,1.3-2.4,1.8c-1,0.5-2.3,0.7-3.8,0.7c-1.5,0-2.8-0.2-3.8-0.7c-1-0.5-1.8-1.1-2.4-1.8
		c-0.6-0.7-1.1-1.7-1.5-3C293.3,212,293,210.7,292.9,209.4z"/>
	<path class="st4" d="M353.2,186.7c-2.9-2.5-7-3.8-12.4-3.8c-4.5,0-8.3,1-11.2,3c-3.1,2.1-4.6,4.1-4.6,6c0,1.1,0.4,2.1,1.2,2.9
		c0.7,0.7,1.7,1.1,2.8,1.1c1.3,0,2.5-0.6,3.6-1.7c1.3-1.3,2.5-2.1,3.6-2.6c1.1-0.5,2.7-0.7,4.6-0.7c3.1,0,5.2,0.6,6.5,1.9
		c1.2,1.2,1.9,3.3,1.9,6v1.5h-10.5c-4.6,0-8.3,1.2-11.1,3.5c-2.9,2.4-4.4,5.7-4.4,9.8c0,3.7,1.1,6.7,3.4,9.1
		c1.5,1.5,3.3,2.6,5.4,3.3c2,0.6,4.5,0.9,7.6,0.9c3,0,5.4-0.3,7.4-1.1c0.9-0.3,1.8-0.8,2.7-1.3c0.1,0.2,0.2,0.3,0.3,0.5
		c0.7,1.1,1.9,1.8,3.4,1.8c1.5,0,2.7-0.6,3.4-1.7c0.6-0.8,0.8-1.9,0.8-3.2v-24C357.6,193,356.1,189.3,353.2,186.7z M339.5,218.9
		c-2.9,0-5-0.5-6.3-1.4c-0.7-0.5-1.6-1.5-1.6-3.9c0-1.9,0.5-3.2,1.6-4.1c1.2-1,3.1-1.5,5.7-1.5h10.2v2.8c0,3.6-0.8,5.1-1.5,5.8
		c-1,0.9-2,1.6-3.2,1.9C343.1,218.7,341.5,218.9,339.5,218.9z"/>
	<path class="st4" d="M389.6,185.1c-2.3-1.4-5.1-2.2-8.2-2.2c-2.6,0-5.2,0.6-7.5,1.7c-0.7,0.3-1.3,0.7-1.9,1.1
		c-0.1-0.3-0.3-0.6-0.4-0.9c-0.7-1.1-2-1.8-3.4-1.8c-1.5,0-2.7,0.6-3.4,1.8c-0.5,0.8-0.8,1.8-0.8,3.2v33.7c0,1.4,0.3,2.4,0.8,3.2
		c0.7,1.1,2,1.8,3.5,1.8c1.5,0,2.7-0.6,3.4-1.7c0.5-0.8,0.8-1.8,0.8-3.2v-21.2c0-2.8,0.7-5.1,2.3-7c1.4-1.7,3.4-2.6,6-2.6
		c1.5,0,2.9,0.4,4.2,1.2c1.6,1,2.7,1.4,3.6,1.4c1.1,0,2.1-0.4,3-1.3c0.8-0.8,1.2-1.8,1.2-2.9C392.6,187.7,391.6,186.3,389.6,185.1z"
		/>
</g>
</svg>
