<?xml version="1.0" encoding="utf-8"?>
<!-- Generator: Adobe Illustrator 21.0.2, SVG Export Plug-In . SVG Version: 6.00 Build 0)  -->
<svg version="1.1" id="Layer_1" xmlns="http://www.w3.org/2000/svg" xmlns:xlink="http://www.w3.org/1999/xlink" x="0px" y="0px"
	 viewBox="0 0 1204.4 446.7" style="enable-background:new 0 0 1204.4 446.7;" xml:space="preserve">
<style type="text/css">
	.st0{fill:none;}
	.st1{fill:#F6906C;}
	.st2{font-family:'NeueHaasUnicaPro-Bold';}
	.st3{font-size:90px;}
	.st4{fill:#004B45;}
	.st5{fill:#F68F6B;}
	.st6{fill:#F6C090;}
	.st7{fill:#E26846;}
</style>
<g>
	<rect x="16.3" y="14" class="st0" width="741" height="341"/>
	<text transform="matrix(1 0 0 1 16.3331 78.0791)"><tspan x="0" y="0" class="st1 st2 st3">Committed to </tspan><tspan x="0" y="108" class="st1 st2 st3">putting patients </tspan><tspan x="0" y="216" class="st1 st2 st3">first.</tspan></text>
</g>
<g>
	<g>
		<path class="st4" d="M853.9,390.4v-9.1c0-2.5,0-4.8,0.1-6.8h0c-0.6,2-1.3,4.2-2.2,6.8l-3.1,9.1h-3.5l-3.1-9.1
			c-0.9-2.5-1.6-4.8-2.2-6.8h-0.1c0.1,2,0.1,4.3,0.1,6.8v9.1h-2.9v-18h4.9l2.9,8.6c0.8,2.3,1.5,4.6,2.1,6.8h0.1
			c0.7-2.3,1.4-4.6,2.1-6.8l2.9-8.6h4.9v18H853.9z"/>
		<path class="st4" d="M864.4,375v4.9h8.5v2.6h-8.5v5.3h9.3v2.6h-12.3v-18h12.1v2.6H864.4z"/>
		<path class="st4" d="M889.9,374.7c1.6,1.6,2.5,3.8,2.5,6.7c0,2.9-0.8,5.1-2.5,6.7c-1.6,1.6-4,2.3-7,2.3h-5.8v-18h5.8
			C886,372.4,888.3,373.2,889.9,374.7z M880.2,387.8h2.7c2.1,0,3.7-0.5,4.7-1.6c1.1-1.1,1.6-2.7,1.6-4.8c0-2.1-0.5-3.7-1.6-4.8
			c-1.1-1.1-2.7-1.6-4.7-1.6h-2.7V387.8z"/>
		<path class="st4" d="M895.6,390.4v-18h3v18H895.6z"/>
		<path class="st4" d="M913.8,372.9c1.1,0.6,1.9,1.3,2.5,2.3c0.6,1,0.9,2.1,1,3.4h-3.1c-0.1-1.2-0.6-2.1-1.3-2.8
			c-0.8-0.7-1.7-1-2.9-1c-1.5,0-2.7,0.6-3.6,1.8c-0.9,1.2-1.3,2.8-1.3,4.9c0,2.1,0.4,3.7,1.3,4.9c0.9,1.2,2.1,1.8,3.6,1.8
			c1.2,0,2.2-0.3,2.9-1c0.8-0.7,1.2-1.7,1.4-2.9h3.1c-0.2,2.1-0.9,3.7-2.3,4.9c-1.3,1.2-3.1,1.8-5.2,1.8c-1.6,0-3.1-0.4-4.3-1.1
			c-1.2-0.8-2.1-1.8-2.8-3.3c-0.6-1.4-1-3.1-1-5c0-1.9,0.3-3.6,1-5c0.6-1.4,1.6-2.5,2.8-3.3c1.2-0.8,2.6-1.1,4.3-1.1
			C911.4,372,912.7,372.3,913.8,372.9z"/>
		<path class="st4" d="M922.8,385.5l-1.7,4.9H918l6.6-18h4.1l6.6,18H932l-1.7-4.9H922.8z M928.9,381.5c-1-3-1.8-5.4-2.3-7.2h-0.1
			c-0.9,2.9-1.7,5.3-2.3,7.2l-0.5,1.4h5.6L928.9,381.5z"/>
		<path class="st4" d="M948.9,387.8v2.6H937v-18h3v15.4H948.9z"/>
		<path class="st4" d="M967.8,372.9c1.1,0.6,1.9,1.3,2.5,2.3c0.6,1,0.9,2.1,1,3.4h-3.1c-0.1-1.2-0.6-2.1-1.3-2.8
			c-0.8-0.7-1.7-1-2.9-1c-1.5,0-2.7,0.6-3.6,1.8c-0.9,1.2-1.3,2.8-1.3,4.9c0,2.1,0.4,3.7,1.3,4.9c0.9,1.2,2.1,1.8,3.6,1.8
			c1.2,0,2.2-0.3,2.9-1c0.8-0.7,1.2-1.7,1.4-2.9h3.1c-0.2,2.1-0.9,3.7-2.3,4.9c-1.3,1.2-3.1,1.8-5.2,1.8c-1.6,0-3.1-0.4-4.3-1.1
			c-1.2-0.8-2.1-1.8-2.8-3.3c-0.6-1.4-1-3.1-1-5c0-1.9,0.3-3.6,1-5c0.6-1.4,1.6-2.5,2.8-3.3c1.2-0.8,2.6-1.1,4.3-1.1
			C965.5,372,966.7,372.3,967.8,372.9z"/>
		<path class="st4" d="M976.9,385.5l-1.7,4.9H972l6.6-18h4.1l6.6,18H986l-1.7-4.9H976.9z M982.9,381.5c-1-3-1.8-5.4-2.3-7.2h-0.1
			c-0.9,2.9-1.7,5.3-2.3,7.2l-0.5,1.4h5.6L982.9,381.5z"/>
		<path class="st4" d="M1001.6,390.4l-3.9-7.5c-1.4-2.7-2.6-5.2-3.8-7.7h-0.1c0.1,2.7,0.2,5.5,0.2,8.2v7.1H991v-18h4.4l3.9,7.5
			c1.4,2.7,2.6,5.2,3.8,7.7h0.1c-0.1-3-0.1-5.8-0.1-8.2v-7.1h2.9v18H1001.6z"/>
		<path class="st4" d="M1021,390.4l-3.9-7.5c-1.4-2.7-2.6-5.2-3.8-7.7h-0.1c0.1,2.7,0.2,5.5,0.2,8.2v7.1h-2.9v-18h4.4l3.9,7.5
			c1.4,2.7,2.6,5.2,3.8,7.7h0.1c-0.1-3-0.1-5.8-0.1-8.2v-7.1h2.9v18H1021z"/>
		<path class="st4" d="M1032,385.5l-1.7,4.9h-3.2l6.6-18h4.1l6.6,18h-3.2l-1.7-4.9H1032z M1038.1,381.5c-1-3-1.8-5.4-2.3-7.2h-0.1
			c-0.9,2.9-1.7,5.3-2.3,7.2l-0.5,1.4h5.6L1038.1,381.5z"/>
		<path class="st4" d="M1057.1,373.6c1.1,0.8,1.6,1.9,1.6,3.4c0,2-1,3.4-3.1,4.2v0.1c2.3,0.5,3.5,1.9,3.5,4.2c0,1.5-0.5,2.7-1.6,3.6
			c-1.1,0.9-2.6,1.3-4.6,1.3h-6.7v-18h6.2C1054.5,372.4,1056.1,372.8,1057.1,373.6z M1049.2,380h3c1.2,0,2.1-0.2,2.7-0.6
			c0.6-0.4,0.8-1.1,0.8-1.9c0-0.9-0.3-1.5-0.8-1.9c-0.5-0.4-1.4-0.6-2.6-0.6h-3.1V380z M1049.2,387.9h3.2c1.2,0,2.1-0.2,2.7-0.7
			c0.6-0.4,0.9-1.1,0.9-2c0-0.9-0.3-1.6-0.9-2.1c-0.6-0.5-1.6-0.7-2.9-0.7h-3V387.9z"/>
		<path class="st4" d="M1062.3,390.4v-18h3v18H1062.3z"/>
		<path class="st4" d="M1080,373.5c1.1,1,1.7,2.5,1.7,4.4h-3.1c0-1.1-0.3-2-0.9-2.6c-0.6-0.6-1.5-0.9-2.7-0.9c-1,0-1.8,0.2-2.3,0.6
			c-0.6,0.4-0.8,1-0.8,1.8c0,0.5,0.1,1,0.4,1.3c0.3,0.3,0.7,0.6,1.3,0.8c0.6,0.2,1.4,0.5,2.4,0.7c1.4,0.3,2.5,0.7,3.4,1
			c0.9,0.4,1.5,0.9,2.1,1.6c0.5,0.7,0.8,1.7,0.8,2.9c0,1.1-0.3,2.1-0.8,2.9c-0.6,0.8-1.3,1.5-2.4,1.9c-1,0.5-2.2,0.7-3.5,0.7
			c-2.2,0-3.9-0.5-5.2-1.6c-1.2-1.1-1.8-2.7-1.8-4.7h3.1c0,1.3,0.3,2.2,1,2.9c0.7,0.6,1.6,1,2.9,1c1.1,0,2-0.2,2.6-0.7
			c0.6-0.5,1-1.2,1-2c0-0.6-0.1-1.1-0.4-1.4c-0.3-0.3-0.7-0.6-1.2-0.8c-0.5-0.2-1.3-0.4-2.4-0.7c-1.4-0.4-2.5-0.7-3.4-1.1
			c-0.8-0.4-1.5-0.9-2.1-1.6c-0.5-0.7-0.8-1.6-0.8-2.8c0-1,0.3-1.9,0.8-2.7c0.5-0.8,1.3-1.4,2.2-1.8c1-0.4,2.1-0.6,3.3-0.6
			C1077.3,372,1078.9,372.5,1080,373.5z"/>
	</g>
	<g>
		<g>
			<path class="st5" d="M1012,175.4h4.1v4.1c0,24.4-19.8,44.1-44.1,44.1h-4.1v-4.1C967.9,195.2,987.7,175.4,1012,175.4z
				 M976.3,215.2c16.4-2,29.5-15,31.4-31.4l0,0C991.3,185.8,978.3,198.8,976.3,215.2L976.3,215.2z"/>
		</g>
		<g>
			<path class="st6" d="M1033.2,242.1l2.9,2.9l-2.9,2.9c-17.2,17.2-45.2,17.2-62.4,0l-2.9-2.9l2.9-2.9
				C988,224.9,1016,224.9,1033.2,242.1z M979.8,245c13,10.2,31.5,10.2,44.4,0v0C1011.2,234.8,992.8,234.8,979.8,245L979.8,245z"/>
		</g>
		<g>
			<path class="st7" d="M962.5,190.6l-2.9,2.9l-2.9-2.9c-17.2-17.2-17.2-45.2,0-62.4l2.9-2.9l2.9,2.9
				C979.8,145.4,979.8,173.3,962.5,190.6z M959.6,137.1c-10.2,13-10.2,31.5,0,44.4h0C969.8,168.6,969.8,150.1,959.6,137.1
				L959.6,137.1z"/>
		</g>
		<g>
			<path class="st5" d="M951.4,219.5v4.1h-4.1c-24.4,0-44.1-19.8-44.1-44.1v-4.1h4.1C931.6,175.4,951.4,195.2,951.4,219.5z
				 M911.6,183.8c2,16.4,15,29.5,31.4,31.4l0,0C941,198.8,928,185.8,911.6,183.8L911.6,183.8z"/>
		</g>
		<g>
			<path class="st6" d="M948.5,242.1l2.9,2.9l-2.9,2.9c-17.2,17.2-45.2,17.2-62.4,0l-2.9-2.9l2.9-2.9
				C903.3,224.9,931.3,224.9,948.5,242.1z M895.1,245c13,10.2,31.5,10.2,44.4,0v0C926.5,234.8,908.1,234.8,895.1,245L895.1,245z"/>
		</g>
	</g>
	<g>
		<path class="st4" d="M913.6,406.9c1.6,1.6,2.5,3.8,2.5,6.7c0,2.9-0.8,5.1-2.5,6.7c-1.6,1.6-4,2.3-7,2.3h-5.8v-18h5.8
			C909.7,404.6,912,405.4,913.6,406.9z M903.9,420h2.7c2.1,0,3.7-0.5,4.7-1.6c1.1-1.1,1.6-2.7,1.6-4.8c0-2.1-0.5-3.7-1.6-4.8
			c-1.1-1.1-2.7-1.6-4.7-1.6h-2.7V420z"/>
		<path class="st4" d="M931.4,405.4c1.3,0.8,2.2,1.8,2.9,3.3c0.7,1.4,1,3.1,1,5c0,1.9-0.3,3.6-1,5c-0.7,1.4-1.6,2.5-2.9,3.3
			s-2.7,1.1-4.4,1.1s-3.2-0.4-4.4-1.1c-1.3-0.8-2.2-1.8-2.9-3.3s-1-3.1-1-5c0-1.9,0.3-3.6,1-5s1.6-2.5,2.9-3.3
			c1.3-0.8,2.7-1.1,4.4-1.1S930.2,404.6,931.4,405.4z M923.2,408.7c-0.9,1.2-1.4,2.8-1.4,4.9c0,2.1,0.5,3.7,1.4,4.9s2.2,1.8,3.8,1.8
			c1.6,0,2.9-0.6,3.8-1.8s1.4-2.8,1.4-4.9c0-2.1-0.5-3.7-1.4-4.9s-2.2-1.8-3.8-1.8C925.4,406.9,924.1,407.5,923.2,408.7z"/>
		<path class="st4" d="M949.7,405c1.1,0.6,1.9,1.3,2.5,2.3c0.6,1,0.9,2.1,1,3.4h-3.1c-0.1-1.2-0.6-2.1-1.3-2.8c-0.8-0.7-1.7-1-2.9-1
			c-1.5,0-2.7,0.6-3.6,1.8c-0.9,1.2-1.3,2.8-1.3,4.9c0,2.1,0.4,3.7,1.3,4.9c0.9,1.2,2.1,1.8,3.6,1.8c1.2,0,2.2-0.3,2.9-1
			c0.8-0.7,1.2-1.7,1.4-2.9h3.1c-0.2,2.1-0.9,3.7-2.3,4.9c-1.3,1.2-3.1,1.8-5.2,1.8c-1.6,0-3.1-0.4-4.3-1.1
			c-1.2-0.8-2.1-1.8-2.8-3.3c-0.6-1.4-1-3.1-1-5c0-1.9,0.3-3.6,1-5c0.6-1.4,1.6-2.5,2.8-3.3c1.2-0.8,2.6-1.1,4.3-1.1
			C947.4,404.2,948.6,404.5,949.7,405z"/>
		<path class="st4" d="M963.1,407.2v15.4h-3v-15.4h-5.9v-2.6h14.9v2.6H963.1z"/>
		<path class="st4" d="M982.3,405.4c1.3,0.8,2.2,1.8,2.9,3.3c0.7,1.4,1,3.1,1,5c0,1.9-0.3,3.6-1,5c-0.7,1.4-1.6,2.5-2.9,3.3
			s-2.7,1.1-4.4,1.1c-1.7,0-3.2-0.4-4.4-1.1c-1.3-0.8-2.2-1.8-2.9-3.3c-0.7-1.4-1-3.1-1-5c0-1.9,0.3-3.6,1-5
			c0.7-1.4,1.6-2.5,2.9-3.3c1.3-0.8,2.7-1.1,4.4-1.1C979.6,404.2,981.1,404.6,982.3,405.4z M974.1,408.7c-0.9,1.2-1.4,2.8-1.4,4.9
			c0,2.1,0.5,3.7,1.4,4.9s2.2,1.8,3.8,1.8c1.6,0,2.9-0.6,3.8-1.8s1.4-2.8,1.4-4.9c0-2.1-0.5-3.7-1.4-4.9s-2.2-1.8-3.8-1.8
			C976.3,406.9,975,407.5,974.1,408.7z"/>
		<path class="st4" d="M1000.5,405.9c1.1,0.9,1.6,2.1,1.6,3.7c0,1.1-0.3,2.1-0.9,2.9c-0.6,0.8-1.4,1.3-2.4,1.6v0.1
			c0.6,0.2,1.1,0.6,1.5,1c0.4,0.5,0.8,1.3,1.2,2.4l1.8,5.1h-3.3l-1.5-4.5c-0.4-1-0.8-1.7-1.3-2.1c-0.5-0.4-1.2-0.6-2.1-0.6h-2.6v7.2
			h-3v-18h6.2C997.8,404.6,999.4,405,1000.5,405.9z M992.5,412.9h3c1.2,0,2.1-0.3,2.7-0.8c0.6-0.5,0.9-1.2,0.9-2.2
			c0-1.9-1.2-2.9-3.7-2.9h-2.8V412.9z"/>
		<path class="st4" d="M1016.2,405.7c1.1,1,1.7,2.5,1.7,4.4h-3.1c0-1.1-0.3-2-0.9-2.6c-0.6-0.6-1.5-0.9-2.7-0.9
			c-1,0-1.8,0.2-2.3,0.6c-0.6,0.4-0.8,1-0.8,1.8c0,0.5,0.1,1,0.4,1.3c0.3,0.3,0.7,0.6,1.3,0.8c0.6,0.2,1.4,0.5,2.4,0.7
			c1.4,0.3,2.5,0.7,3.4,1c0.9,0.4,1.5,0.9,2.1,1.6c0.5,0.7,0.8,1.7,0.8,2.9c0,1.1-0.3,2.1-0.8,2.9c-0.6,0.8-1.3,1.5-2.4,1.9
			c-1,0.5-2.2,0.7-3.5,0.7c-2.2,0-3.9-0.5-5.2-1.6c-1.2-1.1-1.8-2.7-1.8-4.7h3.1c0,1.3,0.3,2.2,1,2.9c0.7,0.6,1.6,1,2.9,1
			c1.1,0,2-0.2,2.6-0.7c0.6-0.5,1-1.2,1-2c0-0.6-0.1-1.1-0.4-1.4c-0.3-0.3-0.7-0.6-1.2-0.8c-0.5-0.2-1.3-0.4-2.4-0.7
			c-1.4-0.4-2.5-0.7-3.4-1.1c-0.8-0.4-1.5-0.9-2.1-1.6c-0.5-0.7-0.8-1.6-0.8-2.8c0-1,0.3-1.9,0.8-2.7c0.5-0.8,1.3-1.4,2.2-1.8
			c1-0.4,2.1-0.6,3.3-0.6C1013.4,404.2,1015.1,404.7,1016.2,405.7z"/>
	</g>
	<path class="st4" d="M1176.8,313l-2.2,4.5c-0.2,0.3-0.4,0.5-0.7,0.5c-0.3,0-0.5-0.2-0.7-0.5l-2.3-4.5v6.7c0,0.3,0,0.4-0.1,0.5
		c-0.1,0.1-0.2,0.2-0.4,0.2c-0.2,0-0.3-0.1-0.4-0.2c-0.1-0.1-0.1-0.2-0.1-0.5v-8c0-0.5,0-0.6,0.2-0.8c0.1-0.1,0.2-0.2,0.4-0.2
		c0.2,0,0.3,0,0.4,0.2c0.1,0.1,0.2,0.3,0.4,0.6l2.6,5.2l2.6-5.2c0.2-0.4,0.3-0.5,0.4-0.6c0.1-0.1,0.2-0.2,0.4-0.2
		c0.2,0,0.3,0.1,0.4,0.2c0.1,0.1,0.2,0.3,0.2,0.8v8c0,0.3,0,0.4-0.1,0.5c-0.1,0.1-0.2,0.2-0.4,0.2c-0.2,0-0.3-0.1-0.4-0.2
		c-0.1-0.1-0.1-0.2-0.1-0.5V313 M1164.4,311.7h-2.2c-0.2,0-0.4,0-0.5-0.1c-0.1-0.1-0.2-0.2-0.2-0.3c0-0.1,0-0.3,0.2-0.3
		c0.1-0.1,0.2-0.1,0.5-0.1h5.3c0.2,0,0.4,0,0.5,0.1c0.1,0.1,0.2,0.2,0.2,0.3c0,0.1,0,0.3-0.2,0.3c-0.1,0.1-0.2,0.1-0.5,0.1h-2.2v8
		c0,0.3,0,0.4-0.1,0.5c-0.1,0.1-0.2,0.2-0.4,0.2c-0.2,0-0.3-0.1-0.4-0.2c-0.1-0.1-0.1-0.2-0.1-0.5V311.7z"/>
	<path class="st4" d="M828.4,290.6c-1.6-1-3.6-0.8-5,0.3c-0.7,0.6-1.2,1.6-1.5,2.9l-9.8,39.6l-10.5-39.2c-0.3-1.3-0.8-2.3-1.5-3
		c-0.6-0.6-1.6-1.3-3.3-1.3c-1.3,0-2.4,0.4-3.2,1.2c-0.7,0.7-1.2,1.6-1.5,2.9l-10.5,39.3l-9.8-39.5c-0.3-1.4-0.8-2.3-1.6-3
		c-1.3-1.1-3.3-1.3-4.9-0.3c-0.8,0.5-1.3,1.2-1.6,2c-0.2,0.5-0.2,1-0.2,1.5c0,0.6,0.1,1.2,0.3,1.9l12.8,51.6
		c0.3,1.2,0.8,2.2,1.5,2.9c1.7,1.8,4.8,1.8,6.6,0c0.7-0.7,1.2-1.6,1.5-2.9l10.8-39.8l10.8,39.8c0.3,1.2,0.8,2.2,1.5,2.9
		c0.9,0.9,2,1.4,3.3,1.4c1.3,0,2.4-0.5,3.3-1.4c0.7-0.7,1.2-1.7,1.4-2.9L830,296c0.2-0.7,0.3-1.3,0.3-1.9c0-0.6-0.1-1.1-0.2-1.5
		C829.7,291.8,829.1,291.1,828.4,290.6z"/>
	<path class="st4" d="M852.1,308.2c-3.5,0-6.6,0.8-9.2,2.5v-15.8c0-1.4-0.3-2.4-0.8-3.2c-0.7-1.1-2-1.8-3.5-1.8
		c-1.5,0-2.7,0.6-3.4,1.7c-0.5,0.8-0.8,1.8-0.8,3.2V347c0,1.4,0.3,2.4,0.8,3.2c0.7,1.1,2,1.8,3.5,1.8c1.5,0,2.7-0.6,3.4-1.7
		c0.5-0.8,0.8-1.8,0.8-3.2v-21.4c0-3.1,0.7-5.4,2.3-7c1.5-1.6,3.6-2.3,6.5-2.3c2.9,0,4.9,0.7,6.3,2.3c1.4,1.6,2.2,4,2.2,7.1V347
		c0,1.4,0.3,2.4,0.8,3.2c0.7,1.1,2,1.8,3.4,1.8c1.5,0,2.7-0.6,3.4-1.7c0.6-0.8,0.8-1.9,0.8-3.2v-22.2c0-5.2-1.6-9.3-4.7-12.3
		C861,309.7,857,308.2,852.1,308.2z"/>
	<path class="st4" d="M879.2,351.9c1.5,0,2.7-0.6,3.4-1.7c0.5-0.8,0.8-1.8,0.8-3.2v-33.7c0-1.3-0.3-2.4-0.8-3.2
		c-0.7-1.1-2-1.8-3.5-1.8c-1.5,0-2.7,0.6-3.4,1.8c-0.5,0.8-0.8,1.8-0.8,3.2V347c0,1.4,0.3,2.4,0.8,3.2
		C876.5,351.3,877.7,351.9,879.2,351.9z"/>
	<path class="st4" d="M875.5,290.5c-1,1-1.5,2.2-1.5,3.6c0,1.4,0.5,2.6,1.5,3.6c1,1,2.2,1.5,3.7,1.5c1.4,0,2.7-0.5,3.7-1.5
		c1-1,1.5-2.2,1.5-3.6c0-1.4-0.5-2.6-1.5-3.6C880.9,288.5,877.5,288.5,875.5,290.5z"/>
	<path class="st4" d="M906.7,316.4c1.3,0,2.2-0.2,3-0.8c1-0.7,1.5-1.8,1.5-3.1c0-1.2-0.5-2.3-1.6-3.1c-0.7-0.5-1.7-0.7-2.9-0.7h-4.5
		V301c0-1.3-0.3-2.3-0.8-3.2c-0.8-1.1-2-1.8-3.4-1.8c-1.5,0-2.7,0.6-3.4,1.8c-0.5,0.8-0.8,1.8-0.8,3.2v7.7h-1.1
		c-1.3,0-2.2,0.2-3,0.8c-1,0.7-1.5,1.8-1.5,3.1c0,1.2,0.5,2.3,1.6,3.1c0.7,0.5,1.7,0.7,2.9,0.7h1.1v23c0,3.5,1,6.5,3,8.7
		c2,2.3,4.9,3.5,8.5,3.5h1.2c1.5,0,2.5-0.3,3.3-0.8c1-0.8,1.5-1.9,1.5-3.2c0-1.3-0.5-2.4-1.6-3.2c-0.7-0.5-1.8-0.8-3.1-0.8h-0.7
		c-1.9,0-2.5-0.7-2.7-0.9c-0.6-0.7-0.9-1.8-0.9-3.3v-23H906.7z M890.2,312.5L890.2,312.5L890.2,312.5L890.2,312.5z"/>
	<path class="st4" d="M929.6,308.2c-5.5,0-10,2-13.1,5.9c-3.1,3.8-4.6,9.2-4.6,16c0,6.9,1.6,12.3,4.7,16.1c3.2,3.9,7.9,5.8,13.9,5.8
		c4.1,0,7.6-0.8,10.3-2.3c2.2-1.2,5.2-3.2,5.2-6c0-1-0.4-2-1.2-2.8c-1.3-1.4-3.4-1.6-4.9-0.6c-0.4,0.2-0.9,0.6-1.6,1.3
		c-1.9,1.7-4.4,2.5-7.5,2.5c-3.4,0-5.9-1-7.7-3.1c-1.5-1.8-2.4-4.4-2.7-7.8h22.1c1.5,0,2.7-0.4,3.5-1.2c0.8-0.8,1.2-1.9,1.2-3.5
		c0-6.1-1.6-11-4.7-14.6C939.3,310.1,935,308.2,929.6,308.2z M921.5,321.3c0.6-1.6,1.6-2.8,3.1-3.7c1.4-0.9,3.1-1.4,4.9-1.4
		c1.9,0,3.5,0.5,4.9,1.4c1.4,0.9,2.4,2.1,3.1,3.7c0.5,1.1,0.8,2.5,1,4.1h-18C920.7,323.8,921.1,322.5,921.5,321.3z"/>
	<path class="st4" d="M972.6,301.7c2.5-2.5,5.6-3.7,9.3-3.7c3.1,0,5.6,0.8,7.8,2.4c2.2,1.7,3.7,3.9,4.6,6.8c0.4,1.3,0.9,2.3,1.6,3
		c1.5,1.5,4.3,1.5,5.9,0c0.5-0.5,1.2-1.5,1.2-3.1c0-1.2-0.4-2.6-1.1-4.4c-0.7-1.7-1.6-3.3-2.6-4.6c-4.2-5.5-10.1-8.3-17.3-8.3
		c-6.2,0-11.4,2-15.4,6.1c-1.2,1.2-2.2,2.4-2.9,3.6c-0.8,1.2-1.4,2.4-1.8,3.7c-0.5,1.3-0.8,2.9-1,4.9c-0.2,1.9-0.3,3.7-0.4,5.5
		c-0.1,1.8-0.1,4.3-0.1,7.4c0,3.1,0,5.6,0.1,7.4c0.1,1.8,0.2,3.6,0.4,5.5c0.2,2,0.6,3.6,1,4.9c0.5,1.2,1.1,2.5,1.8,3.7
		c0.8,1.2,1.7,2.4,2.9,3.6c4,4,9.2,6.1,15.4,6.1c7.3,0,13.1-2.8,17.4-8.3c1.1-1.4,1.9-2.9,2.6-4.6c0.7-1.8,1.1-3.2,1.1-4.4
		c0-1.6-0.6-2.6-1.2-3.1c-1.5-1.5-4.3-1.5-5.9,0c-0.7,0.7-1.2,1.6-1.6,2.9c-0.9,3-2.4,5.2-4.6,6.9c-2.2,1.6-4.7,2.5-7.8,2.5
		c-3.7,0-6.8-1.2-9.3-3.8c-1.6-1.6-2.6-3.5-3-5.8c-0.5-2.6-0.7-7.1-0.7-13.4c0-6.3,0.2-10.8,0.7-13.4
		C970,305.2,971,303.3,972.6,301.7z"/>
	<path class="st4" d="M1025.2,308.2c-5.5,0-10,2-13.1,5.9c-3.1,3.8-4.6,9.2-4.6,16c0,6.9,1.6,12.3,4.7,16.1
		c3.2,3.9,7.9,5.8,13.9,5.8c4.1,0,7.6-0.8,10.3-2.3c2.2-1.2,5.2-3.2,5.2-6c0-1-0.4-2-1.2-2.8c-1.3-1.4-3.4-1.6-4.9-0.6
		c-0.4,0.2-0.9,0.6-1.6,1.3c-1.9,1.7-4.4,2.5-7.5,2.5c-3.4,0-5.9-1-7.7-3.1c-1.5-1.8-2.4-4.4-2.7-7.8h22.1c1.5,0,2.7-0.4,3.5-1.2
		c0.8-0.8,1.2-1.9,1.2-3.5c0-6.1-1.6-11-4.7-14.6C1035,310.1,1030.6,308.2,1025.2,308.2z M1017.2,321.3c0.6-1.6,1.6-2.8,3.1-3.7
		c1.4-0.9,3.1-1.4,4.9-1.4c1.9,0,3.5,0.5,4.9,1.4c1.4,0.9,2.4,2.1,3.1,3.7c0.5,1.1,0.8,2.5,1,4.1h-18
		C1016.4,323.8,1016.7,322.5,1017.2,321.3z"/>
	<path class="st4" d="M1077.7,290c-1.5,0-2.7,0.6-3.4,1.7c-0.5,0.8-0.8,1.8-0.8,3.2v15.8c-0.7-0.5-1.4-0.8-2.1-1.1
		c-2.1-0.9-4.5-1.3-7.2-1.3c-2.2,0-4.3,0.4-6.2,1.1c-2,0.7-3.6,1.7-4.8,2.9c-3.8,3.8-5.7,9.8-5.7,17.9c0,8.1,1.9,14.2,5.7,17.9
		c1.2,1.2,2.9,2.2,4.8,2.9c1.9,0.7,4,1,6.2,1c2.7,0,5.1-0.4,7.2-1.3c0.8-0.4,1.7-0.8,2.5-1.4c0.1,0.3,0.3,0.6,0.4,0.8
		c0.7,1.1,2,1.8,3.5,1.8c1.5,0,2.7-0.6,3.4-1.7c0.5-0.8,0.8-1.8,0.8-3.2v-52.1c0-1.4-0.3-2.4-0.8-3.2
		C1080.4,290.6,1079.2,290,1077.7,290z M1056.2,334.7c-0.1-1.3-0.2-2.8-0.2-4.6c0-1.7,0.1-3.3,0.2-4.6v0c0.1-1.2,0.4-2.6,0.8-3.9
		c0.4-1.2,0.9-2.2,1.5-2.9c0.6-0.7,1.4-1.3,2.4-1.8c1-0.5,2.3-0.7,3.8-0.7c1.5,0,2.8,0.2,3.8,0.7c1,0.5,1.8,1.1,2.4,1.8
		c0.6,0.7,1.1,1.7,1.5,2.9c0.4,1.3,0.7,2.6,0.8,3.9c0.1,1.3,0.2,2.8,0.2,4.6c0,1.7-0.1,3.3-0.2,4.6c-0.1,1.3-0.4,2.6-0.8,3.9
		c-0.4,1.2-0.9,2.2-1.5,3c-0.6,0.7-1.4,1.3-2.4,1.8c-1,0.5-2.3,0.7-3.8,0.7c-1.5,0-2.8-0.2-3.8-0.7c-1-0.5-1.8-1.1-2.4-1.8
		c-0.6-0.7-1.1-1.7-1.5-3C1056.6,337.3,1056.4,335.9,1056.2,334.7z"/>
	<path class="st4" d="M1116.5,312c-2.9-2.5-7-3.8-12.4-3.8c-4.5,0-8.3,1-11.2,3c-3.1,2.1-4.6,4.1-4.6,6c0,1.1,0.4,2.1,1.2,2.9
		c0.7,0.7,1.7,1.1,2.8,1.1c1.3,0,2.5-0.6,3.6-1.7c1.3-1.3,2.5-2.1,3.6-2.6c1.1-0.5,2.7-0.7,4.6-0.7c3.1,0,5.2,0.6,6.5,1.9
		c1.2,1.2,1.9,3.3,1.9,6v1.5H1102c-4.6,0-8.3,1.2-11.1,3.5c-2.9,2.4-4.4,5.7-4.4,9.8c0,3.7,1.1,6.7,3.4,9.1c1.5,1.5,3.3,2.6,5.4,3.3
		c2,0.6,4.5,0.9,7.6,0.9c3,0,5.4-0.3,7.4-1.1c0.9-0.3,1.8-0.8,2.7-1.3c0.1,0.2,0.2,0.3,0.3,0.5c0.7,1.1,1.9,1.8,3.4,1.8
		c1.5,0,2.7-0.6,3.4-1.7c0.6-0.8,0.8-1.9,0.8-3.2v-24C1121,318.3,1119.5,314.6,1116.5,312z M1102.9,344.2c-2.9,0-5-0.5-6.3-1.4
		c-0.7-0.5-1.6-1.5-1.6-3.9c0-1.9,0.5-3.2,1.6-4.1c1.2-1,3.1-1.5,5.7-1.5h10.2v2.8c0,3.6-0.8,5.1-1.5,5.8c-1,0.9-2,1.6-3.2,1.9
		C1106.4,344,1104.8,344.2,1102.9,344.2z"/>
	<path class="st4" d="M1152.9,310.4c-2.3-1.4-5.1-2.2-8.2-2.2c-2.6,0-5.2,0.6-7.5,1.7c-0.7,0.3-1.3,0.7-1.9,1.1
		c-0.1-0.3-0.3-0.6-0.4-0.9c-0.7-1.1-2-1.8-3.4-1.8c-1.5,0-2.7,0.6-3.4,1.8c-0.5,0.8-0.8,1.8-0.8,3.2V347c0,1.4,0.3,2.4,0.8,3.2
		c0.7,1.1,2,1.8,3.5,1.8c1.5,0,2.7-0.6,3.4-1.7c0.5-0.8,0.8-1.8,0.8-3.2v-21.2c0-2.8,0.7-5.1,2.3-7c1.4-1.7,3.4-2.6,6-2.6
		c1.5,0,2.9,0.4,4.2,1.2c1.6,1,2.7,1.4,3.6,1.4c1.1,0,2.1-0.4,3-1.3c0.8-0.8,1.2-1.8,1.2-2.9C1155.9,313,1154.9,311.6,1152.9,310.4z
		"/>
</g>
</svg>
