<?xml version="1.0" encoding="utf-8"?>
<!-- Generator: Adobe Illustrator 21.0.2, SVG Export Plug-In . SVG Version: 6.00 Build 0)  -->
<svg version="1.1" id="Layer_1" xmlns="http://www.w3.org/2000/svg" xmlns:xlink="http://www.w3.org/1999/xlink" x="0px" y="0px"
	 viewBox="0 0 1400 469.2" style="enable-background:new 0 0 1400 469.2;" xml:space="preserve">
<style type="text/css">
	.st0{fill:none;}
	.st1{fill:#F6906C;}
	.st2{font-family:'NeueHaasUnicaPro-Bold';}
	.st3{font-size:90px;}
	.st4{fill:#004B45;}
	.st5{fill:#F68F6B;}
	.st6{fill:#F6C090;}
	.st7{fill:#E26846;}
</style>
<g>
	<rect x="581" y="25.9" class="st0" width="741" height="341"/>
	<text transform="matrix(1 0 0 1 580.9998 90.0022)"><tspan x="0" y="0" class="st1 st2 st3">Committed to </tspan><tspan x="0" y="108" class="st1 st2 st3">putting patients </tspan><tspan x="0" y="216" class="st1 st2 st3">first.</tspan></text>
</g>
<g>
	<g>
		<path class="st4" d="M168.6,402.3v-9.1c0-2.5,0-4.8,0.1-6.8h0c-0.6,2-1.3,4.2-2.2,6.8l-3.1,9.1h-3.5l-3.1-9.1
			c-0.9-2.5-1.6-4.8-2.2-6.8h-0.1c0.1,2,0.1,4.3,0.1,6.8v9.1h-2.9v-18h4.9l2.9,8.6c0.8,2.3,1.5,4.6,2.1,6.8h0.1
			c0.7-2.3,1.4-4.6,2.1-6.8l2.9-8.6h4.9v18H168.6z"/>
		<path class="st4" d="M179,387v4.9h8.5v2.6H179v5.3h9.3v2.6H176v-18h12.1v2.6H179z"/>
		<path class="st4" d="M204.6,386.7c1.6,1.6,2.5,3.8,2.5,6.7c0,2.9-0.8,5.1-2.5,6.7c-1.6,1.6-4,2.3-7,2.3h-5.8v-18h5.8
			C200.6,384.3,203,385.1,204.6,386.7z M194.8,399.7h2.7c2.1,0,3.7-0.5,4.7-1.6c1.1-1.1,1.6-2.7,1.6-4.8c0-2.1-0.5-3.7-1.6-4.8
			c-1.1-1.1-2.7-1.6-4.7-1.6h-2.7V399.7z"/>
		<path class="st4" d="M210.3,402.3v-18h3v18H210.3z"/>
		<path class="st4" d="M228.4,384.8c1.1,0.6,1.9,1.3,2.5,2.3c0.6,1,0.9,2.1,1,3.4h-3.1c-0.1-1.2-0.6-2.1-1.3-2.8
			c-0.8-0.7-1.7-1-2.9-1c-1.5,0-2.7,0.6-3.6,1.8c-0.9,1.2-1.3,2.8-1.3,4.9c0,2.1,0.4,3.7,1.3,4.9c0.9,1.2,2.1,1.8,3.6,1.8
			c1.2,0,2.2-0.3,2.9-1c0.8-0.7,1.2-1.7,1.4-2.9h3.1c-0.2,2.1-0.9,3.7-2.3,4.9c-1.3,1.2-3.1,1.8-5.2,1.8c-1.6,0-3.1-0.4-4.3-1.1
			s-2.1-1.8-2.8-3.3c-0.6-1.4-1-3.1-1-5c0-1.9,0.3-3.6,1-5c0.6-1.4,1.6-2.5,2.8-3.3c1.2-0.8,2.6-1.1,4.3-1.1
			C226.1,383.9,227.3,384.2,228.4,384.8z"/>
		<path class="st4" d="M237.5,397.5l-1.7,4.9h-3.2l6.6-18h4.1l6.6,18h-3.2l-1.7-4.9H237.5z M243.6,393.4c-1-3-1.8-5.4-2.3-7.2h-0.1
			c-0.9,2.9-1.7,5.3-2.3,7.2l-0.5,1.4h5.6L243.6,393.4z"/>
		<path class="st4" d="M263.5,399.7v2.6h-11.9v-18h3v15.4H263.5z"/>
		<path class="st4" d="M282.5,384.8c1.1,0.6,1.9,1.3,2.5,2.3c0.6,1,0.9,2.1,1,3.4H283c-0.1-1.2-0.6-2.1-1.3-2.8
			c-0.8-0.7-1.7-1-2.9-1c-1.5,0-2.7,0.6-3.6,1.8c-0.9,1.2-1.3,2.8-1.3,4.9c0,2.1,0.4,3.7,1.3,4.9c0.9,1.2,2.1,1.8,3.6,1.8
			c1.2,0,2.2-0.3,2.9-1c0.8-0.7,1.2-1.7,1.4-2.9h3.1c-0.2,2.1-0.9,3.7-2.3,4.9c-1.3,1.2-3.1,1.8-5.2,1.8c-1.6,0-3.1-0.4-4.3-1.1
			s-2.1-1.8-2.8-3.3c-0.6-1.4-1-3.1-1-5c0-1.9,0.3-3.6,1-5c0.6-1.4,1.6-2.5,2.8-3.3c1.2-0.8,2.6-1.1,4.3-1.1
			C280.1,383.9,281.4,384.2,282.5,384.8z"/>
		<path class="st4" d="M291.5,397.5l-1.7,4.9h-3.2l6.6-18h4.1l6.6,18h-3.2l-1.7-4.9H291.5z M297.6,393.4c-1-3-1.8-5.4-2.3-7.2h-0.1
			c-0.9,2.9-1.7,5.3-2.3,7.2l-0.5,1.4h5.6L297.6,393.4z"/>
		<path class="st4" d="M316.2,402.3l-3.9-7.5c-1.4-2.7-2.6-5.2-3.8-7.7h-0.1c0.1,2.7,0.2,5.5,0.2,8.2v7.1h-2.9v-18h4.4l3.9,7.5
			c1.4,2.7,2.6,5.2,3.8,7.7h0.1c-0.1-3-0.1-5.8-0.1-8.2v-7.1h2.9v18H316.2z"/>
		<path class="st4" d="M335.6,402.3l-3.9-7.5c-1.4-2.7-2.6-5.2-3.8-7.7h-0.1c0.1,2.7,0.2,5.5,0.2,8.2v7.1h-2.9v-18h4.4l3.9,7.5
			c1.4,2.7,2.6,5.2,3.8,7.7h0.1c-0.1-3-0.1-5.8-0.1-8.2v-7.1h2.9v18H335.6z"/>
		<path class="st4" d="M346.7,397.5l-1.7,4.9h-3.2l6.6-18h4.1l6.6,18h-3.2l-1.7-4.9H346.7z M352.8,393.4c-1-3-1.8-5.4-2.3-7.2h-0.1
			c-0.9,2.9-1.7,5.3-2.3,7.2l-0.5,1.4h5.6L352.8,393.4z"/>
		<path class="st4" d="M371.8,385.6c1.1,0.8,1.6,1.9,1.6,3.4c0,2-1,3.4-3.1,4.2v0.1c2.3,0.5,3.5,1.9,3.5,4.2c0,1.5-0.5,2.7-1.6,3.6
			c-1.1,0.9-2.6,1.3-4.6,1.3h-6.7v-18h6.2C369.2,384.3,370.7,384.7,371.8,385.6z M363.9,392h3c1.2,0,2.1-0.2,2.7-0.6
			c0.6-0.4,0.8-1.1,0.8-1.9c0-0.9-0.3-1.5-0.8-1.9c-0.5-0.4-1.4-0.6-2.6-0.6h-3.1V392z M363.9,399.8h3.2c1.2,0,2.1-0.2,2.7-0.7
			c0.6-0.4,0.9-1.1,0.9-2c0-0.9-0.3-1.6-0.9-2.1c-0.6-0.5-1.6-0.7-2.9-0.7h-3V399.8z"/>
		<path class="st4" d="M377,402.3v-18h3v18H377z"/>
		<path class="st4" d="M394.7,385.4c1.1,1,1.7,2.5,1.7,4.4h-3.1c0-1.1-0.3-2-0.9-2.6c-0.6-0.6-1.5-0.9-2.7-0.9c-1,0-1.8,0.2-2.3,0.6
			c-0.6,0.4-0.8,1-0.8,1.8c0,0.5,0.1,1,0.4,1.3c0.3,0.3,0.7,0.6,1.3,0.8c0.6,0.2,1.4,0.5,2.4,0.7c1.4,0.3,2.5,0.7,3.4,1
			c0.9,0.4,1.5,0.9,2.1,1.6c0.5,0.7,0.8,1.7,0.8,2.9c0,1.1-0.3,2.1-0.8,2.9c-0.6,0.8-1.3,1.5-2.4,1.9c-1,0.5-2.2,0.7-3.5,0.7
			c-2.2,0-3.9-0.5-5.2-1.6c-1.2-1.1-1.8-2.7-1.8-4.7h3.1c0,1.3,0.3,2.2,1,2.9c0.7,0.6,1.6,1,2.9,1c1.1,0,2-0.2,2.6-0.7
			c0.6-0.5,1-1.2,1-2c0-0.6-0.1-1.1-0.4-1.4c-0.3-0.3-0.7-0.6-1.2-0.8c-0.5-0.2-1.3-0.4-2.4-0.7c-1.4-0.4-2.5-0.7-3.4-1.1
			c-0.8-0.4-1.5-0.9-2.1-1.6c-0.5-0.7-0.8-1.6-0.8-2.8c0-1,0.3-1.9,0.8-2.7c0.5-0.8,1.3-1.4,2.2-1.8c1-0.4,2.1-0.6,3.3-0.6
			C391.9,383.9,393.6,384.4,394.7,385.4z"/>
	</g>
	<g>
		<g>
			<path class="st5" d="M326.7,187.3h4.1v4.1c0,24.4-19.8,44.1-44.1,44.1h-4.1v-4.1C282.6,207.1,302.3,187.3,326.7,187.3z
				 M291,227.1c16.4-2,29.5-15,31.4-31.4l0,0C306,197.7,292.9,210.7,291,227.1L291,227.1z"/>
		</g>
		<g>
			<path class="st6" d="M347.9,254.1l2.9,2.9l-2.9,2.9c-17.2,17.2-45.2,17.2-62.4,0l-2.9-2.9l2.9-2.9
				C302.7,236.8,330.6,236.8,347.9,254.1z M294.4,256.9c13,10.2,31.5,10.2,44.4,0v0C325.9,246.7,307.4,246.7,294.4,256.9
				L294.4,256.9z"/>
		</g>
		<g>
			<path class="st7" d="M277.2,202.5l-2.9,2.9l-2.9-2.9c-17.2-17.2-17.2-45.2,0-62.4l2.9-2.9l2.9,2.9
				C294.4,157.3,294.4,185.3,277.2,202.5z M274.3,149.1c-10.2,13-10.2,31.5,0,44.4h0C284.5,180.5,284.5,162.1,274.3,149.1
				L274.3,149.1z"/>
		</g>
		<g>
			<path class="st5" d="M266,231.5v4.1H262c-24.4,0-44.1-19.8-44.1-44.1v-4.1h4.1C246.3,187.3,266,207.1,266,231.5z M226.2,195.7
				c2,16.4,15,29.5,31.4,31.4l0,0C255.7,210.7,242.6,197.7,226.2,195.7L226.2,195.7z"/>
		</g>
		<g>
			<path class="st6" d="M263.2,254.1l2.9,2.9l-2.9,2.9c-17.2,17.2-45.2,17.2-62.4,0l-2.9-2.9l2.9-2.9
				C218,236.8,245.9,236.8,263.2,254.1z M209.7,256.9c13,10.2,31.5,10.2,44.4,0v0C241.2,246.7,222.7,246.7,209.7,256.9L209.7,256.9z
				"/>
		</g>
	</g>
	<g>
		<path class="st4" d="M228.3,418.9c1.6,1.6,2.5,3.8,2.5,6.7c0,2.9-0.8,5.1-2.5,6.7c-1.6,1.6-4,2.3-7,2.3h-5.8v-18h5.8
			C224.3,416.5,226.7,417.3,228.3,418.9z M218.6,431.9h2.7c2.1,0,3.7-0.5,4.7-1.6s1.6-2.7,1.6-4.8c0-2.1-0.5-3.7-1.6-4.8
			c-1.1-1.1-2.7-1.6-4.7-1.6h-2.7V431.9z"/>
		<path class="st4" d="M246.1,417.3c1.3,0.8,2.2,1.8,2.9,3.3c0.7,1.4,1,3.1,1,5c0,1.9-0.3,3.6-1,5c-0.7,1.4-1.6,2.5-2.9,3.3
			s-2.7,1.1-4.4,1.1c-1.7,0-3.2-0.4-4.4-1.1s-2.2-1.8-2.9-3.3c-0.7-1.4-1-3.1-1-5c0-1.9,0.3-3.6,1-5c0.7-1.4,1.6-2.5,2.9-3.3
			s2.7-1.1,4.4-1.1C243.4,416.1,244.8,416.5,246.1,417.3z M237.8,420.6c-0.9,1.2-1.4,2.8-1.4,4.9c0,2.1,0.5,3.7,1.4,4.9
			s2.2,1.8,3.8,1.8c1.6,0,2.9-0.6,3.8-1.8s1.4-2.8,1.4-4.9c0-2.1-0.5-3.7-1.4-4.9s-2.2-1.8-3.8-1.8
			C240.1,418.8,238.8,419.4,237.8,420.6z"/>
		<path class="st4" d="M264.4,417c1.1,0.6,1.9,1.3,2.5,2.3c0.6,1,0.9,2.1,1,3.4h-3.1c-0.1-1.2-0.6-2.1-1.3-2.8c-0.8-0.7-1.7-1-2.9-1
			c-1.5,0-2.7,0.6-3.6,1.8c-0.9,1.2-1.3,2.8-1.3,4.9c0,2.1,0.4,3.7,1.3,4.9c0.9,1.2,2.1,1.8,3.6,1.8c1.2,0,2.2-0.3,2.9-1
			c0.8-0.7,1.2-1.7,1.4-2.9h3.1c-0.2,2.1-0.9,3.7-2.3,4.9c-1.3,1.2-3.1,1.8-5.2,1.8c-1.6,0-3.1-0.4-4.3-1.1
			c-1.2-0.8-2.1-1.8-2.8-3.3c-0.6-1.4-1-3.1-1-5c0-1.9,0.3-3.6,1-5c0.6-1.4,1.6-2.5,2.8-3.3c1.2-0.8,2.6-1.1,4.3-1.1
			C262.1,416.1,263.3,416.4,264.4,417z"/>
		<path class="st4" d="M277.8,419.2v15.4h-3v-15.4h-5.9v-2.6h14.9v2.6H277.8z"/>
		<path class="st4" d="M297,417.3c1.3,0.8,2.2,1.8,2.9,3.3c0.7,1.4,1,3.1,1,5c0,1.9-0.3,3.6-1,5c-0.7,1.4-1.6,2.5-2.9,3.3
			c-1.3,0.8-2.7,1.1-4.4,1.1s-3.2-0.4-4.4-1.1c-1.3-0.8-2.2-1.8-2.9-3.3c-0.7-1.4-1-3.1-1-5c0-1.9,0.3-3.6,1-5
			c0.7-1.4,1.6-2.5,2.9-3.3c1.3-0.8,2.7-1.1,4.4-1.1S295.7,416.5,297,417.3z M288.7,420.6c-0.9,1.2-1.4,2.8-1.4,4.9
			c0,2.1,0.5,3.7,1.4,4.9s2.2,1.8,3.8,1.8c1.6,0,2.9-0.6,3.8-1.8s1.4-2.8,1.4-4.9c0-2.1-0.5-3.7-1.4-4.9s-2.2-1.8-3.8-1.8
			C290.9,418.8,289.7,419.4,288.7,420.6z"/>
		<path class="st4" d="M315.2,417.8c1.1,0.9,1.6,2.1,1.6,3.7c0,1.1-0.3,2.1-0.9,2.9c-0.6,0.8-1.4,1.3-2.4,1.6v0.1
			c0.6,0.2,1.1,0.6,1.5,1c0.4,0.5,0.8,1.3,1.2,2.4l1.8,5.1h-3.3l-1.5-4.5c-0.4-1-0.8-1.7-1.3-2.1c-0.5-0.4-1.2-0.6-2.1-0.6h-2.6v7.2
			h-3v-18h6.2C312.5,416.5,314.1,416.9,315.2,417.8z M307.2,424.8h3c1.2,0,2.1-0.3,2.7-0.8c0.6-0.5,0.9-1.2,0.9-2.2
			c0-1.9-1.2-2.9-3.7-2.9h-2.8V424.8z"/>
		<path class="st4" d="M330.9,417.6c1.1,1,1.7,2.5,1.7,4.4h-3.1c0-1.1-0.3-2-0.9-2.6c-0.6-0.6-1.5-0.9-2.7-0.9c-1,0-1.8,0.2-2.3,0.6
			c-0.6,0.4-0.8,1-0.8,1.8c0,0.5,0.1,1,0.4,1.3c0.3,0.3,0.7,0.6,1.3,0.8c0.6,0.2,1.4,0.5,2.4,0.7c1.4,0.3,2.5,0.7,3.4,1
			c0.9,0.4,1.5,0.9,2.1,1.6c0.5,0.7,0.8,1.7,0.8,2.9c0,1.1-0.3,2.1-0.8,2.9c-0.6,0.8-1.3,1.5-2.4,1.9c-1,0.5-2.2,0.7-3.5,0.7
			c-2.2,0-3.9-0.5-5.2-1.6s-1.8-2.7-1.8-4.7h3.1c0,1.3,0.3,2.2,1,2.9c0.7,0.6,1.6,1,2.9,1c1.1,0,2-0.2,2.6-0.7c0.6-0.5,1-1.2,1-2
			c0-0.6-0.1-1.1-0.4-1.4c-0.3-0.3-0.7-0.6-1.2-0.8c-0.5-0.2-1.3-0.4-2.4-0.7c-1.4-0.4-2.5-0.7-3.4-1.1c-0.8-0.4-1.5-0.9-2.1-1.6
			c-0.5-0.7-0.8-1.6-0.8-2.8c0-1,0.3-1.9,0.8-2.7c0.5-0.8,1.3-1.4,2.2-1.8c1-0.4,2.1-0.6,3.3-0.6
			C328.1,416.1,329.7,416.6,330.9,417.6z"/>
	</g>
	<path class="st4" d="M491.4,324.9l-2.2,4.5c-0.2,0.3-0.4,0.5-0.7,0.5c-0.3,0-0.5-0.2-0.7-0.5l-2.3-4.5v6.7c0,0.3,0,0.4-0.1,0.5
		c-0.1,0.1-0.2,0.2-0.4,0.2c-0.2,0-0.3-0.1-0.4-0.2c-0.1-0.1-0.1-0.2-0.1-0.5v-8c0-0.5,0-0.6,0.2-0.8c0.1-0.1,0.2-0.2,0.4-0.2
		c0.2,0,0.3,0,0.4,0.2c0.1,0.1,0.2,0.3,0.4,0.6l2.6,5.2l2.6-5.2c0.2-0.4,0.3-0.5,0.4-0.6c0.1-0.1,0.2-0.2,0.4-0.2
		c0.2,0,0.3,0.1,0.4,0.2c0.1,0.1,0.2,0.3,0.2,0.8v8c0,0.3,0,0.4-0.1,0.5c-0.1,0.1-0.2,0.2-0.4,0.2c-0.2,0-0.3-0.1-0.4-0.2
		c-0.1-0.1-0.1-0.2-0.1-0.5V324.9 M479.1,323.6h-2.2c-0.2,0-0.4,0-0.5-0.1c-0.1-0.1-0.2-0.2-0.2-0.3c0-0.1,0-0.3,0.2-0.3
		c0.1-0.1,0.2-0.1,0.5-0.1h5.3c0.2,0,0.4,0,0.5,0.1c0.1,0.1,0.2,0.2,0.2,0.3c0,0.1,0,0.3-0.2,0.3c-0.1,0.1-0.2,0.1-0.5,0.1h-2.2v8
		c0,0.3,0,0.4-0.1,0.5c-0.1,0.1-0.2,0.2-0.4,0.2c-0.2,0-0.3-0.1-0.4-0.2c-0.1-0.1-0.1-0.2-0.1-0.5V323.6z"/>
	<path class="st4" d="M143,302.5c-1.6-1-3.6-0.8-5,0.3c-0.7,0.6-1.2,1.6-1.5,2.9l-9.8,39.6l-10.5-39.2c-0.3-1.3-0.8-2.3-1.5-3
		c-0.6-0.6-1.6-1.3-3.3-1.3c-1.3,0-2.4,0.4-3.2,1.2c-0.7,0.7-1.2,1.6-1.5,2.9l-10.5,39.3l-9.8-39.5c-0.3-1.4-0.8-2.3-1.6-3
		c-1.3-1.1-3.3-1.3-4.9-0.3c-0.8,0.5-1.3,1.2-1.6,2c-0.2,0.5-0.2,1-0.2,1.5c0,0.6,0.1,1.2,0.3,1.9l12.8,51.6
		c0.3,1.2,0.8,2.2,1.5,2.9c1.7,1.8,4.8,1.8,6.6,0c0.7-0.7,1.2-1.6,1.5-2.9l10.8-39.8l10.8,39.8c0.3,1.2,0.8,2.2,1.5,2.9
		c0.9,0.9,2,1.4,3.3,1.4c1.3,0,2.4-0.5,3.3-1.4c0.7-0.7,1.2-1.7,1.4-2.9l12.9-51.6c0.2-0.7,0.3-1.3,0.3-1.9c0-0.6-0.1-1.1-0.2-1.5
		C144.4,303.7,143.8,303,143,302.5z"/>
	<path class="st4" d="M166.8,320.2c-3.5,0-6.6,0.8-9.2,2.5v-15.8c0-1.4-0.3-2.4-0.8-3.2c-0.7-1.1-2-1.8-3.5-1.8
		c-1.5,0-2.7,0.6-3.4,1.7c-0.5,0.8-0.8,1.8-0.8,3.2v52.1c0,1.4,0.3,2.4,0.8,3.2c0.7,1.1,2,1.8,3.5,1.8c1.5,0,2.7-0.6,3.4-1.7
		c0.5-0.8,0.8-1.8,0.8-3.2v-21.4c0-3.1,0.7-5.4,2.3-7c1.5-1.6,3.6-2.3,6.5-2.3c2.9,0,4.9,0.7,6.3,2.3c1.4,1.6,2.2,4,2.2,7.1v21.4
		c0,1.4,0.3,2.4,0.8,3.2c0.7,1.1,2,1.8,3.4,1.8c1.5,0,2.7-0.6,3.4-1.7c0.6-0.8,0.8-1.9,0.8-3.2v-22.2c0-5.2-1.6-9.3-4.7-12.3
		C175.7,321.6,171.7,320.2,166.8,320.2z"/>
	<path class="st4" d="M193.8,363.8c1.5,0,2.7-0.6,3.4-1.7c0.5-0.8,0.8-1.8,0.8-3.2v-33.7c0-1.3-0.3-2.4-0.8-3.2
		c-0.7-1.1-2-1.8-3.5-1.8c-1.5,0-2.7,0.6-3.4,1.8c-0.5,0.8-0.8,1.8-0.8,3.2v33.7c0,1.4,0.3,2.4,0.8,3.2
		C191.1,363.2,192.4,363.8,193.8,363.8z"/>
	<path class="st4" d="M190.2,302.4c-1,1-1.5,2.2-1.5,3.6c0,1.4,0.5,2.6,1.5,3.6c1,1,2.2,1.5,3.7,1.5c1.4,0,2.7-0.5,3.7-1.5
		c1-1,1.5-2.2,1.5-3.6c0-1.4-0.5-2.6-1.5-3.6C195.5,300.4,192.2,300.4,190.2,302.4z"/>
	<path class="st4" d="M221.4,328.3c1.3,0,2.2-0.2,3-0.8c1-0.7,1.5-1.8,1.5-3.1c0-1.2-0.5-2.3-1.6-3.1c-0.7-0.5-1.7-0.7-2.9-0.7h-4.5
		v-7.7c0-1.3-0.3-2.3-0.8-3.2c-0.8-1.1-2-1.8-3.4-1.8c-1.5,0-2.7,0.6-3.4,1.8c-0.5,0.8-0.8,1.8-0.8,3.2v7.7h-1.1
		c-1.3,0-2.2,0.2-3,0.8c-1,0.7-1.5,1.8-1.5,3.1c0,1.2,0.5,2.3,1.6,3.1c0.7,0.5,1.7,0.7,2.9,0.7h1.1v23c0,3.5,1,6.5,3,8.7
		c2,2.3,4.9,3.5,8.5,3.5h1.2c1.5,0,2.5-0.3,3.3-0.8c1-0.8,1.5-1.9,1.5-3.2c0-1.3-0.5-2.4-1.6-3.2c-0.7-0.5-1.8-0.8-3.1-0.8h-0.7
		c-1.9,0-2.5-0.7-2.7-0.9c-0.6-0.7-0.9-1.8-0.9-3.3v-23H221.4z M204.9,324.5L204.9,324.5L204.9,324.5L204.9,324.5z"/>
	<path class="st4" d="M244.2,320.2c-5.5,0-10,2-13.1,5.9c-3.1,3.8-4.6,9.2-4.6,16c0,6.9,1.6,12.3,4.7,16.1c3.2,3.9,7.9,5.8,13.9,5.8
		c4.1,0,7.6-0.8,10.3-2.3c2.2-1.2,5.2-3.2,5.2-6c0-1-0.4-2-1.2-2.8c-1.3-1.4-3.4-1.6-4.9-0.6c-0.4,0.2-0.9,0.6-1.6,1.3
		c-1.9,1.7-4.4,2.5-7.5,2.5c-3.4,0-5.9-1-7.7-3.1c-1.5-1.8-2.4-4.4-2.7-7.8h22.1c1.5,0,2.7-0.4,3.5-1.2c0.8-0.8,1.2-1.9,1.2-3.5
		c0-6.1-1.6-11-4.7-14.6C254,322.1,249.6,320.2,244.2,320.2z M236.2,333.2c0.6-1.6,1.6-2.8,3.1-3.7c1.4-0.9,3.1-1.4,4.9-1.4
		c1.9,0,3.5,0.5,4.9,1.4c1.4,0.9,2.4,2.1,3.1,3.7c0.5,1.1,0.8,2.5,1,4.1h-18C235.4,335.8,235.7,334.4,236.2,333.2z"/>
	<path class="st4" d="M287.3,313.6c2.5-2.5,5.6-3.7,9.3-3.7c3.1,0,5.6,0.8,7.8,2.4c2.2,1.7,3.7,3.9,4.6,6.8c0.4,1.3,0.9,2.3,1.6,3
		c1.5,1.5,4.3,1.5,5.9,0c0.5-0.5,1.2-1.5,1.2-3.1c0-1.2-0.4-2.6-1.1-4.4c-0.7-1.7-1.6-3.3-2.6-4.6c-4.2-5.5-10.1-8.3-17.3-8.3
		c-6.2,0-11.4,2-15.4,6.1c-1.2,1.2-2.2,2.4-2.9,3.6c-0.8,1.2-1.4,2.4-1.8,3.7c-0.5,1.3-0.8,2.9-1,4.9c-0.2,1.9-0.3,3.7-0.4,5.5
		c-0.1,1.8-0.1,4.3-0.1,7.4c0,3.1,0,5.6,0.1,7.4c0.1,1.8,0.2,3.6,0.4,5.5c0.2,2,0.6,3.6,1,4.9c0.5,1.2,1.1,2.5,1.8,3.7
		c0.8,1.2,1.7,2.4,2.9,3.6c4,4,9.2,6.1,15.4,6.1c7.3,0,13.1-2.8,17.4-8.3c1.1-1.4,1.9-2.9,2.6-4.6c0.7-1.8,1.1-3.2,1.1-4.4
		c0-1.6-0.6-2.6-1.2-3.1c-1.5-1.5-4.3-1.5-5.9,0c-0.7,0.7-1.2,1.6-1.6,2.9c-0.9,3-2.4,5.2-4.6,6.9c-2.2,1.6-4.7,2.5-7.8,2.5
		c-3.7,0-6.8-1.2-9.3-3.8c-1.6-1.6-2.6-3.5-3-5.8c-0.5-2.6-0.7-7.1-0.7-13.4c0-6.3,0.2-10.8,0.7-13.4
		C284.7,317.2,285.7,315.3,287.3,313.6z"/>
	<path class="st4" d="M339.9,320.2c-5.5,0-10,2-13.1,5.9c-3.1,3.8-4.6,9.2-4.6,16c0,6.9,1.6,12.3,4.7,16.1c3.2,3.9,7.9,5.8,13.9,5.8
		c4.1,0,7.6-0.8,10.3-2.3c2.2-1.2,5.2-3.2,5.2-6c0-1-0.4-2-1.2-2.8c-1.3-1.4-3.4-1.6-4.9-0.6c-0.4,0.2-0.9,0.6-1.6,1.3
		c-1.9,1.7-4.4,2.5-7.5,2.5c-3.4,0-5.9-1-7.7-3.1c-1.5-1.8-2.4-4.4-2.7-7.8h22.1c1.5,0,2.7-0.4,3.5-1.2c0.8-0.8,1.2-1.9,1.2-3.5
		c0-6.1-1.6-11-4.7-14.6C349.6,322.1,345.3,320.2,339.9,320.2z M331.8,333.2c0.6-1.6,1.6-2.8,3.1-3.7c1.4-0.9,3.1-1.4,4.9-1.4
		c1.9,0,3.5,0.5,4.9,1.4c1.4,0.9,2.4,2.1,3.1,3.7c0.5,1.1,0.8,2.5,1,4.1h-18C331,335.8,331.4,334.4,331.8,333.2z"/>
	<path class="st4" d="M392.4,301.9c-1.5,0-2.7,0.6-3.4,1.7c-0.5,0.8-0.8,1.8-0.8,3.2v15.8c-0.7-0.5-1.4-0.8-2.1-1.1
		c-2.1-0.9-4.5-1.3-7.2-1.3c-2.2,0-4.3,0.4-6.2,1.1c-2,0.7-3.6,1.7-4.8,2.9c-3.8,3.8-5.7,9.8-5.7,17.9c0,8.1,1.9,14.2,5.7,17.9
		c1.2,1.2,2.9,2.2,4.8,2.9c1.9,0.7,4,1,6.2,1c2.7,0,5.1-0.4,7.2-1.3c0.8-0.4,1.7-0.8,2.5-1.4c0.1,0.3,0.3,0.6,0.4,0.8
		c0.7,1.1,2,1.8,3.5,1.8c1.5,0,2.7-0.6,3.4-1.7c0.5-0.8,0.8-1.8,0.8-3.2v-52.1c0-1.4-0.3-2.4-0.8-3.2
		C395.1,302.5,393.9,301.9,392.4,301.9z M370.9,346.6c-0.1-1.3-0.2-2.8-0.2-4.6s0.1-3.3,0.2-4.6v0c0.1-1.2,0.4-2.6,0.8-3.9
		c0.4-1.2,0.9-2.2,1.5-2.9c0.6-0.7,1.4-1.3,2.4-1.8c1-0.5,2.3-0.7,3.8-0.7c1.5,0,2.8,0.2,3.8,0.7c1,0.5,1.8,1.1,2.4,1.8
		c0.6,0.7,1.1,1.7,1.5,2.9c0.4,1.3,0.7,2.6,0.8,3.9c0.1,1.3,0.2,2.8,0.2,4.6c0,1.7-0.1,3.3-0.2,4.6c-0.1,1.3-0.4,2.6-0.8,3.9
		c-0.4,1.2-0.9,2.2-1.5,3c-0.6,0.7-1.4,1.3-2.4,1.8c-1,0.5-2.3,0.7-3.8,0.7c-1.5,0-2.8-0.2-3.8-0.7c-1-0.5-1.8-1.1-2.4-1.8
		c-0.6-0.7-1.1-1.7-1.5-3C371.3,349.2,371,347.9,370.9,346.6z"/>
	<path class="st4" d="M431.2,323.9c-2.9-2.5-7-3.8-12.4-3.8c-4.5,0-8.3,1-11.2,3c-3.1,2.1-4.6,4.1-4.6,6c0,1.1,0.4,2.1,1.2,2.9
		c0.7,0.7,1.7,1.1,2.8,1.1c1.3,0,2.5-0.6,3.6-1.7c1.3-1.3,2.5-2.1,3.6-2.6c1.1-0.5,2.7-0.7,4.6-0.7c3.1,0,5.2,0.6,6.5,1.9
		c1.2,1.2,1.9,3.3,1.9,6v1.5h-10.5c-4.6,0-8.3,1.2-11.1,3.5c-2.9,2.4-4.4,5.7-4.4,9.8c0,3.7,1.1,6.7,3.4,9.1
		c1.5,1.5,3.3,2.6,5.4,3.3c2,0.6,4.5,0.9,7.6,0.9c3,0,5.4-0.3,7.4-1.1c0.9-0.3,1.8-0.8,2.7-1.3c0.1,0.2,0.2,0.3,0.3,0.5
		c0.7,1.1,1.9,1.8,3.4,1.8c1.5,0,2.7-0.6,3.4-1.7c0.6-0.8,0.8-1.9,0.8-3.2v-24C435.6,330.2,434.1,326.5,431.2,323.9z M417.5,356.1
		c-2.9,0-5-0.5-6.3-1.4c-0.7-0.5-1.6-1.5-1.6-3.9c0-1.9,0.5-3.2,1.6-4.1c1.2-1,3.1-1.5,5.7-1.5h10.2v2.8c0,3.6-0.8,5.1-1.5,5.8
		c-1,0.9-2,1.6-3.2,1.9C421.1,355.9,419.5,356.1,417.5,356.1z"/>
	<path class="st4" d="M467.6,322.3c-2.3-1.4-5.1-2.2-8.2-2.2c-2.6,0-5.2,0.6-7.5,1.7c-0.7,0.3-1.3,0.7-1.9,1.1
		c-0.1-0.3-0.3-0.6-0.4-0.9c-0.7-1.1-2-1.8-3.4-1.8c-1.5,0-2.7,0.6-3.4,1.8c-0.5,0.8-0.8,1.8-0.8,3.2v33.7c0,1.4,0.3,2.4,0.8,3.2
		c0.7,1.1,2,1.8,3.5,1.8c1.5,0,2.7-0.6,3.4-1.7c0.5-0.8,0.8-1.8,0.8-3.2v-21.2c0-2.8,0.7-5.1,2.3-7c1.4-1.7,3.4-2.6,6-2.6
		c1.5,0,2.9,0.4,4.2,1.2c1.6,1,2.7,1.4,3.6,1.4c1.1,0,2.1-0.4,3-1.3c0.8-0.8,1.2-1.8,1.2-2.9C470.6,324.9,469.6,323.5,467.6,322.3z"
		/>
</g>
</svg>
