<?xml version="1.0" encoding="utf-8"?>
<!-- Generator: Adobe Illustrator 21.0.2, SVG Export Plug-In . SVG Version: 6.00 Build 0)  -->
<svg version="1.1" id="Layer_1" xmlns="http://www.w3.org/2000/svg" xmlns:xlink="http://www.w3.org/1999/xlink" x="0px" y="0px"
	 viewBox="0 0 97 94" style="enable-background:new 0 0 97 94;" xml:space="preserve">
<style type="text/css">
	.st0{fill:#FFFFFF;}
</style>
<g>
	<path class="st0" d="M48.6,27c7.2,7.2,14.4,14.4,21.7,21.7c-0.7,0.8-1.6,1.6-2.5,2.5c-1.5-1.6-3.1-3.2-4.8-5c0,7.1,0,13.9,0,20.8
		c-9.8,0-19.4,0-29.2,0c0-6.8,0-13.5,0-20.3c-1.6,1.7-3.2,3.2-4.7,4.8c-1-1.1-1.8-1.9-2.5-2.6C34,41.7,41.3,34.4,48.6,27z
		 M59.4,63.5c0-0.2,0.1-0.4,0.1-0.6c0-6.5,0-13,0-19.5c0-0.4-0.3-0.9-0.6-1.2c-1.5-1.5-3-3-4.5-4.5c-1.9-1.9-3.9-3.9-5.8-5.9
		c-0.3,0.3-0.6,0.5-0.8,0.7c-3.2,3.2-6.4,6.4-9.7,9.6c-0.5,0.5-0.7,1-0.7,1.7c0,6.2,0,12.4,0,18.5c0,0.4,0,0.7,0.1,1.1
		C44.8,63.5,52,63.5,59.4,63.5z"/>
</g>
</svg>
