<?xml version="1.0" encoding="utf-8"?>
<!-- Generator: Adobe Illustrator 21.0.2, SVG Export Plug-In . SVG Version: 6.00 Build 0)  -->
<svg version="1.1" id="Layer_1" xmlns="http://www.w3.org/2000/svg" xmlns:xlink="http://www.w3.org/1999/xlink" x="0px" y="0px"
	 viewBox="0 0 311 98" style="enable-background:new 0 0 311 98;" xml:space="preserve">
<style type="text/css">
	.st0{fill:#F6916A;}
	.st1{fill:#F5C18F;}
	.st2{fill:#E16946;}
	.st3{fill:#004B45;}
</style>
<g>
	<path class="st0" d="M78.4,35h2.2v2.2c0,13.2-10.7,23.9-23.9,23.9h-2.2v-2.2C54.5,45.7,65.2,35,78.4,35 M59,56.6
		c8.9-1.1,16-8.1,17-17h0C67.1,40.6,60.1,47.7,59,56.6L59,56.6z"/>
	<path class="st1" d="M89.8,71.2l1.6,1.6l-1.6,1.6c-9.3,9.3-24.5,9.3-33.8,0l-1.6-1.6l1.6-1.6C65.4,61.8,80.5,61.8,89.8,71.2
		 M60.9,72.7c7,5.5,17,5.5,24.1,0C77.9,67.2,67.9,67.2,60.9,72.7z"/>
	<path class="st2" d="M51.5,43.2L50,44.8l-1.6-1.6c-9.3-9.3-9.3-24.5,0-33.8L50,7.8l1.6,1.6C60.9,18.7,60.9,33.9,51.5,43.2 M50,14.3
		c-5.5,7-5.5,17,0,24.1C55.5,31.3,55.5,21.3,50,14.3L50,14.3z"/>
	<path class="st0" d="M45.5,58.9v2.2h-2.2c-13.2,0-23.9-10.7-23.9-23.9V35h2.2C34.8,35,45.5,45.7,45.5,58.9 M23.9,39.5
		c1.1,8.9,8.1,16,17,17v0C39.9,47.7,32.8,40.6,23.9,39.5z"/>
	<path class="st1" d="M43.9,71.2l1.6,1.6l-1.6,1.6c-9.3,9.3-24.5,9.3-33.8,0l-1.6-1.6l1.6-1.6C19.4,61.8,34.6,61.8,43.9,71.2
		 M15,72.7c7,5.5,17,5.5,24.1,0C32,67.2,22,67.2,15,72.7z"/>
	<path class="st3" d="M130.6,34.4c-0.8-0.5-1.7-0.4-2.4,0.2c-0.3,0.3-0.6,0.7-0.7,1.4l-4.7,18.9l-5-18.7c-0.2-0.6-0.4-1.1-0.7-1.4
		c-0.3-0.3-0.8-0.6-1.5-0.6c-0.6,0-1.1,0.2-1.5,0.6c-0.3,0.3-0.6,0.8-0.7,1.4l-5,18.7L103.6,36c-0.2-0.7-0.4-1.1-0.8-1.4
		c-0.6-0.5-1.6-0.6-2.4-0.1c-0.4,0.2-0.6,0.6-0.8,0.9c-0.1,0.2-0.1,0.5-0.1,0.7c0,0.3,0,0.6,0.1,0.9l6.1,24.6c0.1,0.6,0.4,1,0.7,1.4
		c0.8,0.8,2.3,0.8,3.1,0c0.3-0.3,0.6-0.8,0.7-1.4l5.1-19l5.2,19c0.2,0.6,0.4,1,0.7,1.4c0.4,0.4,0.9,0.6,1.6,0.6
		c0.6,0,1.1-0.2,1.6-0.7c0.3-0.3,0.6-0.8,0.7-1.4l6.1-24.6c0.1-0.3,0.1-0.6,0.1-0.9c0-0.3,0-0.5-0.1-0.7
		C131.2,34.9,130.9,34.6,130.6,34.4"/>
	<path class="st3" d="M141.9,42.8c-1.7,0-3.1,0.4-4.4,1.2v-7.5c0-0.7-0.1-1.2-0.4-1.5c-0.4-0.5-0.9-0.8-1.6-0.8
		c-0.7,0-1.3,0.3-1.6,0.8c-0.3,0.4-0.4,0.9-0.4,1.5v24.8c0,0.7,0.1,1.2,0.4,1.5c0.4,0.5,0.9,0.8,1.6,0.8c0.7,0,1.3-0.3,1.6-0.8
		c0.3-0.4,0.4-0.9,0.4-1.5V51.1c0-1.5,0.4-2.6,1.1-3.4c0.7-0.7,1.7-1.1,3.1-1.1c1.4,0,2.3,0.4,3,1.1c0.7,0.7,1,1.9,1,3.4v10.2
		c0,0.7,0.1,1.2,0.4,1.5c0.4,0.5,0.9,0.8,1.6,0.8c0.7,0,1.3-0.3,1.6-0.8c0.3-0.4,0.4-0.9,0.4-1.5V50.7c0-2.5-0.8-4.4-2.2-5.8
		C146.1,43.5,144.2,42.8,141.9,42.8"/>
	<path class="st3" d="M154.8,42.9c-0.7,0-1.3,0.3-1.6,0.8c-0.3,0.4-0.4,0.9-0.4,1.5v16c0,0.7,0.1,1.2,0.4,1.5
		c0.4,0.5,0.9,0.8,1.6,0.8s1.3-0.3,1.6-0.8c0.3-0.4,0.4-0.9,0.4-1.5v-16c0-0.6-0.1-1.1-0.4-1.5C156.1,43.2,155.5,42.9,154.8,42.9"/>
	<path class="st3" d="M153,34.3c-0.5,0.5-0.7,1.1-0.7,1.7c0,0.7,0.2,1.2,0.7,1.7c0.5,0.5,1.1,0.7,1.7,0.7c0.7,0,1.3-0.3,1.7-0.7
		c0.5-0.5,0.7-1.1,0.7-1.7c0-0.7-0.2-1.2-0.7-1.7C155.6,33.4,154,33.4,153,34.3"/>
	<path class="st3" d="M167.9,46.7c0.6,0,1.1-0.1,1.4-0.4c0.5-0.3,0.7-0.9,0.7-1.5c0-0.6-0.3-1.1-0.7-1.5c-0.3-0.2-0.8-0.3-1.4-0.3
		h-2.2v-3.7c0-0.6-0.1-1.1-0.4-1.5c-0.4-0.5-0.9-0.8-1.6-0.8c-0.7,0-1.3,0.3-1.6,0.8c-0.3,0.4-0.4,0.9-0.4,1.5V43h-0.5
		c-0.6,0-1.1,0.1-1.4,0.4c-0.5,0.3-0.7,0.9-0.7,1.5c0,0.6,0.3,1.1,0.7,1.5c0.3,0.2,0.8,0.3,1.4,0.3h0.5v10.9c0,1.7,0.5,3.1,1.4,4.2
		c1,1.1,2.3,1.7,4,1.7h0.6c0.7,0,1.2-0.1,1.6-0.4c0.5-0.4,0.7-0.9,0.7-1.5s-0.3-1.1-0.8-1.5c-0.4-0.3-0.8-0.4-1.5-0.4h-0.3
		c-0.9,0-1.2-0.3-1.3-0.4c-0.3-0.3-0.4-0.9-0.4-1.6V46.7H167.9z"/>
	<path class="st3" d="M178.7,42.8c-2.6,0-4.7,1-6.2,2.8c-1.5,1.8-2.2,4.4-2.2,7.6c0,3.3,0.8,5.9,2.3,7.7c1.5,1.8,3.8,2.8,6.6,2.8
		c2,0,3.6-0.4,4.9-1.1c1.1-0.6,2.5-1.5,2.5-2.9c0-0.5-0.2-1-0.6-1.3c-0.6-0.7-1.6-0.8-2.3-0.3c-0.2,0.1-0.4,0.3-0.8,0.6
		c-0.9,0.8-2.1,1.2-3.6,1.2c-1.6,0-2.8-0.5-3.6-1.5c-0.7-0.9-1.1-2.1-1.3-3.7h10.5c0.7,0,1.3-0.2,1.7-0.6c0.4-0.4,0.6-0.9,0.6-1.7
		c0-2.9-0.7-5.2-2.2-7C183.4,43.7,181.3,42.8,178.7,42.8 M174.9,49c0.3-0.8,0.8-1.3,1.5-1.8c0.7-0.4,1.5-0.7,2.4-0.7
		c0.9,0,1.7,0.2,2.4,0.7c0.7,0.4,1.2,1,1.5,1.8c0.2,0.5,0.4,1.2,0.5,2h-8.6C174.5,50.2,174.7,49.6,174.9,49"/>
	<path class="st3" d="M201,39.7c1.2-1.2,2.6-1.8,4.4-1.8c1.5,0,2.7,0.4,3.7,1.2c1,0.8,1.8,1.9,2.2,3.3c0.2,0.6,0.4,1.1,0.8,1.4
		c0.7,0.7,2.1,0.7,2.8,0c0.3-0.3,0.6-0.7,0.6-1.5c0-0.6-0.2-1.2-0.5-2.1c-0.3-0.8-0.7-1.6-1.2-2.2c-2-2.6-4.8-3.9-8.3-3.9
		c-3,0-5.4,1-7.3,2.9c-0.6,0.6-1,1.1-1.4,1.7c-0.4,0.6-0.7,1.2-0.9,1.7c-0.2,0.6-0.4,1.4-0.5,2.3c-0.1,0.9-0.2,1.8-0.2,2.6
		c0,0.8,0,2,0,3.5c0,1.5,0,2.7,0,3.5c0,0.9,0.1,1.7,0.2,2.6c0.1,1,0.3,1.7,0.5,2.3c0.2,0.6,0.5,1.2,0.9,1.7c0.4,0.6,0.8,1.2,1.4,1.7
		c1.9,1.9,4.4,2.9,7.3,2.9c3.5,0,6.2-1.3,8.3-3.9c0.5-0.7,0.9-1.4,1.2-2.2c0.3-0.9,0.5-1.5,0.5-2.1c0-0.8-0.3-1.2-0.6-1.5
		c-0.7-0.7-2.1-0.7-2.8,0c-0.3,0.3-0.6,0.8-0.8,1.4c-0.4,1.4-1.2,2.5-2.2,3.3c-1,0.8-2.2,1.2-3.7,1.2c-1.8,0-3.2-0.6-4.4-1.8
		c-0.8-0.8-1.2-1.7-1.4-2.8c-0.2-1.2-0.3-3.4-0.3-6.4s0.1-5.2,0.3-6.4C199.7,41.4,200.2,40.5,201,39.7"/>
	<path class="st3" d="M226,42.8c-2.6,0-4.7,1-6.2,2.8c-1.5,1.8-2.2,4.4-2.2,7.6c0,3.3,0.8,5.9,2.3,7.7c1.5,1.8,3.8,2.8,6.6,2.8
		c2,0,3.6-0.4,4.9-1.1c1.1-0.6,2.5-1.5,2.5-2.9c0-0.5-0.2-1-0.6-1.3c-0.6-0.7-1.6-0.8-2.3-0.3c-0.2,0.1-0.4,0.3-0.8,0.6
		c-0.9,0.8-2.1,1.2-3.6,1.2c-1.6,0-2.8-0.5-3.6-1.5c-0.7-0.9-1.1-2.1-1.3-3.7h10.5c0.7,0,1.3-0.2,1.7-0.6c0.4-0.4,0.6-0.9,0.6-1.7
		c0-2.9-0.7-5.2-2.2-7C230.7,43.7,228.6,42.8,226,42.8 M222.2,49c0.3-0.8,0.8-1.3,1.5-1.8c0.7-0.4,1.5-0.7,2.4-0.7
		c0.9,0,1.7,0.2,2.4,0.7c0.7,0.4,1.2,1,1.5,1.8c0.2,0.5,0.4,1.2,0.5,1.9h-8.6C221.8,50.2,222,49.6,222.2,49"/>
	<path class="st3" d="M251,34.1c-0.7,0-1.3,0.3-1.6,0.8c-0.3,0.4-0.4,0.9-0.4,1.5V44c-0.3-0.2-0.7-0.4-1-0.5c-1-0.4-2.1-0.6-3.4-0.6
		c-1,0-2,0.2-2.9,0.5c-0.9,0.3-1.7,0.8-2.3,1.4c-1.8,1.8-2.7,4.7-2.7,8.5c0,3.9,0.9,6.7,2.7,8.5c0.6,0.6,1.4,1.1,2.3,1.4
		c0.9,0.3,1.9,0.5,2.9,0.5c1.3,0,2.4-0.2,3.4-0.6c0.4-0.2,0.8-0.4,1.2-0.7c0.1,0.1,0.1,0.3,0.2,0.4c0.4,0.5,0.9,0.8,1.6,0.8
		c0.7,0,1.3-0.3,1.6-0.8c0.3-0.4,0.4-0.9,0.4-1.5V36.4c0-0.7-0.1-1.2-0.4-1.5C252.3,34.4,251.7,34.1,251,34.1 M240.8,55.4
		c-0.1-0.6-0.1-1.4-0.1-2.2c0-0.8,0-1.6,0.1-2.2v0c0.1-0.6,0.2-1.2,0.4-1.8c0.2-0.6,0.4-1,0.7-1.4c0.3-0.3,0.6-0.6,1.1-0.8
		c0.5-0.2,1.1-0.4,1.8-0.4c0.7,0,1.3,0.1,1.8,0.4c0.5,0.2,0.9,0.5,1.2,0.9c0.3,0.4,0.5,0.8,0.7,1.4c0.2,0.6,0.3,1.3,0.4,1.9
		c0.1,0.6,0.1,1.4,0.1,2.2c0,0.8,0,1.6-0.1,2.2c-0.1,0.6-0.2,1.2-0.4,1.8c-0.2,0.6-0.4,1-0.7,1.4c-0.3,0.3-0.7,0.6-1.1,0.9
		c-0.5,0.2-1.1,0.4-1.8,0.4c-0.7,0-1.3-0.1-1.8-0.4c-0.5-0.2-0.9-0.5-1.1-0.8c-0.3-0.4-0.5-0.8-0.7-1.4
		C241,56.6,240.8,56,240.8,55.4"/>
	<path class="st3" d="M269.5,44.6c-1.4-1.2-3.3-1.8-5.9-1.8c-2.2,0-4,0.5-5.3,1.4c-1.5,1-2.2,1.9-2.2,2.9c0,0.5,0.2,1,0.6,1.4
		c0.4,0.4,0.8,0.5,1.3,0.5c0.6,0,1.2-0.3,1.7-0.8c0.6-0.6,1.2-1,1.7-1.3c0.5-0.2,1.3-0.3,2.2-0.3c1.5,0,2.5,0.3,3.1,0.9
		c0.6,0.6,0.9,1.6,0.9,2.9V51h-5c-2.2,0-4,0.6-5.3,1.6c-1.4,1.1-2.1,2.7-2.1,4.7c0,1.7,0.5,3.2,1.6,4.3c0.7,0.7,1.6,1.3,2.6,1.6
		c0.9,0.3,2.1,0.4,3.6,0.4c1.4,0,2.6-0.2,3.5-0.5c0.4-0.2,0.9-0.4,1.3-0.6c0,0.1,0.1,0.2,0.1,0.2c0.4,0.5,0.9,0.8,1.6,0.8
		c0.7,0,1.3-0.3,1.6-0.8c0.3-0.4,0.4-0.9,0.4-1.5V49.8C271.6,47.6,270.9,45.8,269.5,44.6 M267.6,54.7V56c0,1.7-0.4,2.5-0.7,2.8
		c-0.5,0.4-1,0.7-1.5,0.9c-0.6,0.2-1.4,0.2-2.3,0.2c-1.4,0-2.4-0.2-3-0.7c-0.3-0.2-0.8-0.7-0.8-1.9c0-0.9,0.2-1.5,0.8-2
		c0.6-0.5,1.5-0.7,2.7-0.7H267.6z"/>
	<path class="st3" d="M286.8,43.8c-1.1-0.7-2.4-1-3.9-1c-1.3,0-2.5,0.3-3.6,0.8c-0.3,0.2-0.6,0.3-0.9,0.5c-0.1-0.2-0.1-0.3-0.2-0.4
		c-0.4-0.5-0.9-0.8-1.6-0.8c-0.7,0-1.3,0.3-1.6,0.8c-0.3,0.4-0.4,0.9-0.4,1.5v16c0,0.7,0.1,1.2,0.4,1.5c0.4,0.5,0.9,0.8,1.6,0.8
		c0.7,0,1.3-0.3,1.6-0.8c0.3-0.4,0.4-0.9,0.4-1.5V51.1c0-1.3,0.4-2.4,1.1-3.3c0.7-0.8,1.6-1.2,2.9-1.2c0.7,0,1.4,0.2,2,0.6
		c0.8,0.5,1.3,0.7,1.7,0.7c0.5,0,1-0.2,1.4-0.6c0.4-0.4,0.6-0.8,0.6-1.4C288.3,45.1,287.8,44.4,286.8,43.8"/>
	<path class="st3" d="M293.8,43.7h-2.5c-0.1,0-0.2,0-0.2,0c-0.1,0-0.1,0.1-0.1,0.2c0,0.1,0,0.1,0.1,0.2c0,0,0.1,0,0.2,0h1v3.8
		c0,0.1,0,0.2,0,0.2c0,0.1,0.1,0.1,0.2,0.1c0.1,0,0.1,0,0.2-0.1c0,0,0-0.1,0-0.2v-3.8h1c0.1,0,0.2,0,0.2,0c0.1,0,0.1-0.1,0.1-0.2
		c0-0.1,0-0.1-0.1-0.2C294,43.7,293.9,43.7,293.8,43.7"/>
	<path class="st3" d="M298.6,43.8c0,0-0.1-0.1-0.2-0.1c-0.1,0-0.1,0-0.2,0.1c0,0-0.1,0.1-0.2,0.3l-1.2,2.5l-1.2-2.5
		c-0.1-0.2-0.1-0.3-0.2-0.3c-0.1-0.1-0.1-0.1-0.2-0.1c-0.1,0-0.2,0-0.2,0.1c-0.1,0.1-0.1,0.1-0.1,0.4v3.8c0,0.1,0,0.2,0,0.2
		c0,0.1,0.1,0.1,0.2,0.1c0.1,0,0.1,0,0.2-0.1c0,0,0-0.1,0-0.2v-3.2l1.1,2.1c0.1,0.2,0.2,0.2,0.3,0.2c0.2,0,0.3-0.1,0.3-0.2l1.1-2.1
		v3.2c0,0.1,0,0.2,0,0.2c0,0.1,0.1,0.1,0.2,0.1c0.1,0,0.1,0,0.2-0.1c0,0,0-0.1,0-0.2v-3.8C298.7,43.9,298.7,43.8,298.6,43.8"/>
	<path class="st3" d="M109.2,81.7v-4.6c0-1.3,0-2.4,0.1-3.4h0c-0.3,1-0.7,2.1-1.1,3.4l-1.6,4.6h-1.7l-1.6-4.6
		c-0.4-1.3-0.8-2.4-1.1-3.4h0c0,1,0.1,2.2,0.1,3.4v4.6h-1.5v-9.1h2.5l1.5,4.3c0.4,1.2,0.7,2.3,1,3.4h0c0.3-1.2,0.7-2.3,1.1-3.4
		l1.5-4.3h2.5v9.1H109.2z"/>
	<polygon class="st3" points="114.5,73.9 114.5,76.4 118.7,76.4 118.7,77.7 114.5,77.7 114.5,80.3 119.1,80.3 119.1,81.7 
		112.9,81.7 112.9,72.6 119,72.6 119,73.9 	"/>
	<path class="st3" d="M127.3,73.8c0.8,0.8,1.2,1.9,1.2,3.4c0,1.5-0.4,2.6-1.2,3.4c-0.8,0.8-2,1.2-3.5,1.2h-2.9v-9.1h2.9
		C125.3,72.6,126.5,73,127.3,73.8 M122.4,80.3h1.4c1.1,0,1.8-0.3,2.4-0.8c0.5-0.5,0.8-1.3,0.8-2.4c0-1.1-0.3-1.9-0.8-2.4
		c-0.5-0.5-1.3-0.8-2.4-0.8h-1.4V80.3z"/>
	<rect x="130.2" y="72.6" class="st3" width="1.5" height="9.1"/>
	<path class="st3" d="M139.3,72.8c0.5,0.3,1,0.7,1.3,1.2c0.3,0.5,0.5,1.1,0.5,1.7h-1.5c-0.1-0.6-0.3-1.1-0.7-1.4
		c-0.4-0.3-0.9-0.5-1.5-0.5c-0.8,0-1.4,0.3-1.8,0.9c-0.4,0.6-0.7,1.4-0.7,2.5c0,1,0.2,1.9,0.7,2.5c0.4,0.6,1,0.9,1.8,0.9
		c0.6,0,1.1-0.2,1.5-0.5c0.4-0.3,0.6-0.8,0.7-1.5h1.6c-0.1,1-0.5,1.9-1.1,2.5c-0.7,0.6-1.5,0.9-2.6,0.9c-0.8,0-1.5-0.2-2.1-0.6
		c-0.6-0.4-1.1-0.9-1.4-1.6c-0.3-0.7-0.5-1.5-0.5-2.5c0-1,0.2-1.8,0.5-2.5c0.3-0.7,0.8-1.3,1.4-1.6c0.6-0.4,1.3-0.6,2.2-0.6
		C138.1,72.4,138.8,72.5,139.3,72.8"/>
	<path class="st3" d="M143.9,79.2l-0.8,2.5h-1.6l3.3-9.1h2.1l3.3,9.1h-1.6l-0.8-2.5H143.9z M146.9,77.2c-0.5-1.5-0.9-2.7-1.2-3.6h0
		c-0.4,1.5-0.8,2.7-1.2,3.6l-0.2,0.7h2.8L146.9,77.2z"/>
	<polygon class="st3" points="157,80.3 157,81.7 151,81.7 151,72.6 152.5,72.6 152.5,80.3 	"/>
	<path class="st3" d="M166.5,72.8c0.5,0.3,1,0.7,1.3,1.2c0.3,0.5,0.5,1.1,0.5,1.7h-1.5c-0.1-0.6-0.3-1.1-0.7-1.4
		c-0.4-0.3-0.9-0.5-1.5-0.5c-0.8,0-1.4,0.3-1.8,0.9c-0.4,0.6-0.7,1.4-0.7,2.5c0,1,0.2,1.9,0.7,2.5c0.4,0.6,1,0.9,1.8,0.9
		c0.6,0,1.1-0.2,1.5-0.5c0.4-0.3,0.6-0.8,0.7-1.5h1.6c-0.1,1-0.5,1.9-1.1,2.5c-0.7,0.6-1.5,0.9-2.6,0.9c-0.8,0-1.5-0.2-2.1-0.6
		c-0.6-0.4-1.1-0.9-1.4-1.6c-0.3-0.7-0.5-1.5-0.5-2.5c0-1,0.2-1.8,0.5-2.5c0.3-0.7,0.8-1.3,1.4-1.6c0.6-0.4,1.3-0.6,2.2-0.6
		C165.3,72.4,165.9,72.5,166.5,72.8"/>
	<path class="st3" d="M171,79.2l-0.8,2.5h-1.6l3.3-9.1h2.1l3.3,9.1h-1.6l-0.8-2.5H171z M174.1,77.2c-0.5-1.5-0.9-2.7-1.2-3.6h0
		c-0.4,1.5-0.8,2.7-1.2,3.6l-0.2,0.7h2.8L174.1,77.2z"/>
	<path class="st3" d="M183.5,81.7l-2-3.8c-0.7-1.3-1.3-2.6-1.9-3.9h0c0.1,1.4,0.1,2.7,0.1,4.1v3.6h-1.5v-9.1h2.2l1.9,3.8
		c0.7,1.3,1.3,2.6,1.9,3.9h0c0-1.5-0.1-2.9-0.1-4.1v-3.6h1.5v9.1H183.5z"/>
	<path class="st3" d="M193.2,81.7l-2-3.8c-0.7-1.3-1.3-2.6-1.9-3.9h0c0.1,1.4,0.1,2.7,0.1,4.1v3.6h-1.5v-9.1h2.2l1.9,3.8
		c0.7,1.3,1.3,2.6,1.9,3.9h0c0-1.5-0.1-2.9-0.1-4.1v-3.6h1.5v9.1H193.2z"/>
	<path class="st3" d="M198.8,79.2l-0.8,2.5h-1.6l3.3-9.1h2.1l3.3,9.1h-1.6l-0.8-2.5H198.8z M201.8,77.2c-0.5-1.5-0.9-2.7-1.2-3.6h0
		c-0.4,1.5-0.8,2.7-1.2,3.6l-0.2,0.7h2.8L201.8,77.2z"/>
	<path class="st3" d="M211.4,73.2c0.5,0.4,0.8,1,0.8,1.7c0,1-0.5,1.7-1.5,2.1v0c1.2,0.3,1.7,1,1.7,2.1c0,0.8-0.3,1.4-0.8,1.8
		c-0.6,0.4-1.3,0.7-2.3,0.7h-3.4v-9.1h3.1C210.1,72.6,210.9,72.8,211.4,73.2 M207.4,76.4h1.5c0.6,0,1.1-0.1,1.4-0.3
		c0.3-0.2,0.4-0.5,0.4-1c0-0.4-0.1-0.8-0.4-1c-0.3-0.2-0.7-0.3-1.3-0.3h-1.6V76.4z M207.4,80.4h1.6c0.6,0,1.1-0.1,1.4-0.3
		c0.3-0.2,0.4-0.6,0.4-1c0-0.5-0.2-0.8-0.5-1c-0.3-0.2-0.8-0.3-1.4-0.3h-1.5V80.4z"/>
	<rect x="214" y="72.6" class="st3" width="1.5" height="9.1"/>
	<path class="st3" d="M222.9,73.2c0.6,0.5,0.8,1.2,0.8,2.2h-1.5c0-0.6-0.2-1-0.5-1.3c-0.3-0.3-0.8-0.4-1.3-0.4
		c-0.5,0-0.9,0.1-1.2,0.3c-0.3,0.2-0.4,0.5-0.4,0.9c0,0.3,0.1,0.5,0.2,0.7c0.1,0.2,0.4,0.3,0.6,0.4c0.3,0.1,0.7,0.2,1.2,0.4
		c0.7,0.2,1.3,0.3,1.7,0.5c0.4,0.2,0.8,0.5,1,0.8c0.3,0.4,0.4,0.8,0.4,1.4c0,0.6-0.1,1-0.4,1.5c-0.3,0.4-0.7,0.7-1.2,1
		c-0.5,0.2-1.1,0.3-1.8,0.3c-1.1,0-2-0.3-2.6-0.8c-0.6-0.5-0.9-1.3-0.9-2.4h1.6c0,0.6,0.2,1.1,0.5,1.4c0.3,0.3,0.8,0.5,1.5,0.5
		c0.6,0,1-0.1,1.3-0.4c0.3-0.2,0.5-0.6,0.5-1c0-0.3-0.1-0.5-0.2-0.7c-0.1-0.2-0.3-0.3-0.6-0.4c-0.3-0.1-0.7-0.2-1.2-0.4
		c-0.7-0.2-1.3-0.4-1.7-0.5c-0.4-0.2-0.8-0.4-1-0.8c-0.3-0.4-0.4-0.8-0.4-1.4c0-0.5,0.1-1,0.4-1.4c0.3-0.4,0.6-0.7,1.1-0.9
		c0.5-0.2,1-0.3,1.7-0.3C221.5,72.4,222.4,72.6,222.9,73.2"/>
	<path class="st3" d="M235,73.8c0.8,0.8,1.2,1.9,1.2,3.4c0,1.5-0.4,2.6-1.2,3.4c-0.8,0.8-2,1.2-3.5,1.2h-2.9v-9.1h2.9
		C233,72.6,234.2,73,235,73.8 M230.1,80.3h1.4c1.1,0,1.8-0.3,2.4-0.8c0.5-0.5,0.8-1.3,0.8-2.4c0-1.1-0.3-1.9-0.8-2.4
		c-0.5-0.5-1.3-0.8-2.4-0.8h-1.4V80.3z"/>
	<path class="st3" d="M244,73c0.6,0.4,1.1,0.9,1.5,1.6c0.3,0.7,0.5,1.5,0.5,2.5c0,1-0.2,1.8-0.5,2.5c-0.3,0.7-0.8,1.3-1.5,1.6
		c-0.6,0.4-1.4,0.6-2.2,0.6c-0.9,0-1.6-0.2-2.2-0.6c-0.6-0.4-1.1-0.9-1.5-1.6s-0.5-1.5-0.5-2.5c0-1,0.2-1.8,0.5-2.5
		c0.3-0.7,0.8-1.3,1.5-1.6c0.6-0.4,1.4-0.6,2.2-0.6C242.6,72.4,243.3,72.6,244,73 M239.8,74.7c-0.5,0.6-0.7,1.4-0.7,2.5
		c0,1,0.2,1.9,0.7,2.5c0.5,0.6,1.1,0.9,1.9,0.9s1.4-0.3,1.9-0.9c0.5-0.6,0.7-1.4,0.7-2.5c0-1-0.2-1.9-0.7-2.5
		c-0.5-0.6-1.1-0.9-1.9-0.9S240.3,74.1,239.8,74.7"/>
	<path class="st3" d="M253.2,72.8c0.5,0.3,1,0.7,1.3,1.2c0.3,0.5,0.5,1.1,0.5,1.7h-1.5c-0.1-0.6-0.3-1.1-0.7-1.4
		c-0.4-0.3-0.9-0.5-1.5-0.5c-0.8,0-1.4,0.3-1.8,0.9c-0.4,0.6-0.7,1.4-0.7,2.5c0,1,0.2,1.9,0.7,2.5c0.4,0.6,1,0.9,1.8,0.9
		c0.6,0,1.1-0.2,1.5-0.5c0.4-0.3,0.6-0.8,0.7-1.5h1.6c-0.1,1-0.5,1.9-1.1,2.5c-0.7,0.6-1.5,0.9-2.6,0.9c-0.8,0-1.5-0.2-2.1-0.6
		c-0.6-0.4-1.1-0.9-1.4-1.6c-0.3-0.7-0.5-1.5-0.5-2.5c0-1,0.2-1.8,0.5-2.5c0.3-0.7,0.8-1.3,1.4-1.6c0.6-0.4,1.3-0.6,2.2-0.6
		C252,72.4,252.6,72.5,253.2,72.8"/>
	<polygon class="st3" points="259.9,73.9 259.9,81.7 258.4,81.7 258.4,73.9 255.4,73.9 255.4,72.6 262.9,72.6 262.9,73.9 	"/>
	<path class="st3" d="M269.6,73c0.6,0.4,1.1,0.9,1.5,1.6c0.3,0.7,0.5,1.5,0.5,2.5c0,1-0.2,1.8-0.5,2.5s-0.8,1.3-1.5,1.6
		c-0.6,0.4-1.4,0.6-2.2,0.6c-0.9,0-1.6-0.2-2.2-0.6c-0.6-0.4-1.1-0.9-1.5-1.6s-0.5-1.5-0.5-2.5c0-1,0.2-1.8,0.5-2.5
		c0.3-0.7,0.8-1.3,1.5-1.6c0.6-0.4,1.4-0.6,2.2-0.6C268.2,72.4,268.9,72.6,269.6,73 M265.4,74.7c-0.5,0.6-0.7,1.4-0.7,2.5
		c0,1,0.2,1.9,0.7,2.5c0.5,0.6,1.1,0.9,1.9,0.9c0.8,0,1.4-0.3,1.9-0.9c0.5-0.6,0.7-1.4,0.7-2.5c0-1-0.2-1.9-0.7-2.5
		s-1.1-0.9-1.9-0.9C266.5,73.8,265.9,74.1,265.4,74.7"/>
	<path class="st3" d="M278.7,73.2c0.5,0.4,0.8,1.1,0.8,1.9c0,0.6-0.2,1.1-0.5,1.5c-0.3,0.4-0.7,0.7-1.2,0.8v0
		c0.3,0.1,0.6,0.3,0.8,0.5c0.2,0.2,0.4,0.6,0.6,1.2l0.9,2.6h-1.7l-0.8-2.3c-0.2-0.5-0.4-0.9-0.6-1.1c-0.2-0.2-0.6-0.3-1-0.3h-1.3
		v3.6h-1.5v-9.1h3.1C277.4,72.6,278.2,72.8,278.7,73.2 M274.7,76.8h1.5c0.6,0,1-0.1,1.3-0.4c0.3-0.3,0.4-0.6,0.4-1.1
		c0-1-0.6-1.4-1.9-1.4h-1.4V76.8z"/>
	<path class="st3" d="M286.6,73.2c0.6,0.5,0.8,1.2,0.8,2.2h-1.5c0-0.6-0.2-1-0.5-1.3c-0.3-0.3-0.8-0.4-1.3-0.4
		c-0.5,0-0.9,0.1-1.2,0.3c-0.3,0.2-0.4,0.5-0.4,0.9c0,0.3,0.1,0.5,0.2,0.7c0.1,0.2,0.4,0.3,0.6,0.4c0.3,0.1,0.7,0.2,1.2,0.4
		c0.7,0.2,1.3,0.3,1.7,0.5c0.4,0.2,0.8,0.5,1,0.8c0.3,0.4,0.4,0.8,0.4,1.4c0,0.6-0.1,1-0.4,1.5c-0.3,0.4-0.7,0.7-1.2,1
		c-0.5,0.2-1.1,0.3-1.8,0.3c-1.1,0-2-0.3-2.6-0.8c-0.6-0.5-0.9-1.3-0.9-2.4h1.6c0,0.6,0.2,1.1,0.5,1.4c0.3,0.3,0.8,0.5,1.5,0.5
		c0.6,0,1-0.1,1.3-0.4c0.3-0.2,0.5-0.6,0.5-1c0-0.3-0.1-0.5-0.2-0.7c-0.1-0.2-0.3-0.3-0.6-0.4c-0.3-0.1-0.7-0.2-1.2-0.4
		c-0.7-0.2-1.3-0.4-1.7-0.5c-0.4-0.2-0.8-0.4-1-0.8c-0.3-0.4-0.4-0.8-0.4-1.4c0-0.5,0.1-1,0.4-1.4c0.3-0.4,0.6-0.7,1.1-0.9
		c0.5-0.2,1-0.3,1.7-0.3C285.2,72.4,286,72.6,286.6,73.2"/>
</g>
</svg>
