<?xml version="1.0" encoding="utf-8"?>
<!-- Generator: Adobe Illustrator 21.0.2, SVG Export Plug-In . SVG Version: 6.00 Build 0)  -->
<svg version="1.1" id="Layer_1" xmlns="http://www.w3.org/2000/svg" xmlns:xlink="http://www.w3.org/1999/xlink" x="0px" y="0px"
	 viewBox="0 0 97 94" style="enable-background:new 0 0 97 94;" xml:space="preserve">
<style type="text/css">
	.st0{fill:#FFFFFF;}
</style>
<g>
	<path class="st0" d="M55.9,39.1c-5,0-9.7,0-14.7,0c0,0.7,0,1.5,0,2.2c0,2.4-1.8,4.1-4.1,4.2c-2.3,0.1-4.5,0.2-6.8,0.2
		c-2.1,0-3.8-1.5-3.9-3.6c-0.1-1.6-0.2-3.2,0-4.7c0.4-2.5,1.8-4.3,3.8-5.8c2.9-2.1,6.1-3.3,9.5-4c4.4-0.9,8.9-1,13.5-0.6
		c3.4,0.3,6.6,1,9.7,2.3c2.5,1.1,4.8,2.4,6.4,4.7c1,1.4,1.5,2.9,1.4,4.6c0,1.3,0,2.7-0.2,4c-0.4,2-1.9,3.1-4,3.1
		c-2.3,0-4.7-0.1-7-0.2c-1.8-0.1-3.5-1.7-3.6-3.6C55.8,41,55.9,40.1,55.9,39.1z M48.4,35.7c2.7,0,5.4,0,8.1,0c1.9,0,2.6,0.9,2.6,2.7
		c0,0.9,0,1.7,0,2.6c0,0.7,0.3,1.1,1,1.1c2,0.1,4,0.1,6,0.2c0.8,0,1.1-0.3,1.1-1.1c0-0.9,0-1.7,0-2.6c0.1-1.4-0.4-2.7-1.6-3.6
		c-1.4-1-2.8-2-4.4-2.7c-3.1-1.4-6.5-1.9-10-2.1c-5.4-0.3-10.7,0.1-15.8,2c-1.8,0.7-3.4,1.5-4.7,3c-1.8,1.9-1.5,4.2-1.2,6.5
		c0,0.2,0.7,0.6,1.1,0.6c2,0,3.9-0.1,5.9-0.2c0.8,0,1.1-0.4,1.2-1.1c0-0.9,0-1.7,0-2.6c0.1-1.9,0.8-2.7,2.8-2.7
		C43.2,35.7,45.8,35.7,48.4,35.7z"/>
	<path class="st0" d="M64.7,47.4c0.2,1.6,0.4,3.1,0.6,4.7c0.3,2.7,0.6,5.3,1,8c0.5,3.4-1.8,6.6-5.3,7c-0.4,0.1-0.9,0.1-1.3,0.1
		c-7.4,0-14.9,0-22.3,0c-3.2,0-5.8-1.8-6.4-4.6c-0.3-1.4-0.1-2.9,0.1-4.3c0.4-3.6,0.9-7.3,1.3-11c1.1,0,2.2,0,3.4,0
		c-0.4,3.1-0.8,6.2-1.1,9.3c-0.2,1.4-0.4,2.8-0.5,4.2c-0.2,1.6,1.3,3,3.1,3c4.1,0,8.2,0,12.4,0c3.4,0,6.7,0,10.1,0
		c2.3,0,3.5-1.2,3.3-3.5c-0.4-3.9-1-7.9-1.4-11.8c0-0.4-0.1-0.7-0.1-1.1C62.4,47.4,63.5,47.4,64.7,47.4z"/>
</g>
</svg>
